# Blender3D v248 OBJ File: arrow.blend
# www.blender3d.org
o Cube
v -1.108650 3.576486 -0.871078
v -1.036285 3.504121 -0.871078
v -1.108650 3.431756 -0.871078
v -1.181015 3.504121 -0.871078
v -1.108650 3.576486 0.786162
v -1.036285 3.504121 0.786162
v -1.108650 3.431756 0.786162
v -1.181015 3.504121 0.786162
v -1.108650 3.600497 0.993371
v -1.205026 3.504121 0.993371
v -1.108650 3.407746 0.993371
v -1.012274 3.504121 0.993371
v -1.072467 3.467939 -0.871078
v -1.072467 3.540304 -0.871078
v -1.144832 3.540304 -0.871078
v -1.144832 3.467939 -0.871078
v -1.072467 3.540304 0.786162
v -1.072467 3.467939 0.786162
v -1.144832 3.467939 0.786162
v -1.144832 3.540304 0.786162
v -1.036285 3.504121 -0.042458
v -1.108650 3.576486 -0.042458
v -1.108650 3.431756 -0.042458
v -1.181015 3.504121 -0.042458
v -1.181015 3.504121 0.948235
v -1.156838 3.552309 1.115819
v -1.108650 3.576486 0.948235
v -1.108650 3.431756 0.948235
v -1.156838 3.455934 1.115819
v -1.036285 3.504121 0.948235
v -1.060462 3.455933 1.115819
v -1.060462 3.552309 1.115819
v -1.072467 3.540304 -0.042458
v -1.072467 3.467939 -0.042458
v -1.144832 3.467939 -0.042458
v -1.144832 3.540304 -0.042458
v -1.144832 3.540304 0.948235
v -1.144832 3.467939 0.948235
v -1.072467 3.467939 0.948235
v -1.072467 3.540304 0.948235
v -1.108650 3.504121 1.406514
v -1.181015 3.504121 -1.187653
v -1.213843 3.398928 -1.187653
v -1.108650 3.431756 -1.187653
v -1.213843 3.609315 -1.187653
v -1.108650 3.576486 -1.187653
v -1.036285 3.504121 -1.187653
v -1.003456 3.609315 -1.187653
v -1.003456 3.398928 -1.187653
v -1.108650 3.504121 -1.311548
v -1.162924 3.486030 -1.187653
v -1.126741 3.449847 -1.187653
v -1.162924 3.522213 -1.187653
v -1.126741 3.558395 -1.187653
v -1.054376 3.522213 -1.187653
v -1.090559 3.558395 -1.187653
v -1.090559 3.449847 -1.187653
v -1.054376 3.486030 -1.187653
v -1.126741 3.522213 -1.187653
v -1.126741 3.486030 -1.187653
v -1.090559 3.486030 -1.187653
v -1.090559 3.522213 -1.187653
v -1.144832 3.504121 -1.187653
v -1.108650 3.467939 -1.187653
v -1.108650 3.540304 -1.187653
v -1.072467 3.504121 -1.187653
vt 0.953000 0.633109
vt 0.946867 0.618705
vt 0.961270 0.612573
vt 0.961312 0.624523
vt 0.940734 0.604302
vt 0.952685 0.604260
vt 0.941049 0.633150
vt 0.932464 0.624838
vt 0.932422 0.612888
vt 0.909825 0.144792
vt 0.928982 0.140463
vt 0.910970 0.159538
vt 0.906225 0.155847
vt 0.943515 0.511068
vt 0.936896 0.515703
vt 0.931178 0.509985
vt 0.950488 0.139585
vt 0.951918 0.156145
vt 0.932261 0.522322
vt 0.956067 0.151480
vt 0.897616 0.161862
vt 0.899042 0.177750
vt 0.964112 0.515703
vt 0.957493 0.511068
vt 0.969831 0.509985
vt 0.910616 0.195929
vt 0.897512 0.193516
vt 0.905964 0.199488
vt 0.968747 0.522322
vt 0.947794 0.215603
vt 0.927829 0.214356
vt 0.949847 0.199779
vt 0.953696 0.204792
vt 0.957493 0.547554
vt 0.964112 0.542919
vt 0.969830 0.548637
vt 0.909421 0.210220
vt 0.968747 0.536300
vt 0.969642 0.155735
vt 0.971878 0.179628
vt 0.932261 0.536300
vt 0.936896 0.542919
vt 0.931178 0.548637
vt 0.966907 0.201880
vt 0.943515 0.547554
vt 0.956400 0.535207
vt 0.950504 0.541585
vt 0.944608 0.535207
vt 0.947193 0.197167
vt 0.894066 0.197167
vt 0.920629 0.170604
vt 0.962778 0.529311
vt 0.956400 0.523415
vt 0.947193 0.144040
vt 0.894066 0.144040
vt 0.938231 0.529311
vt 0.944608 0.523415
vt 0.950504 0.517037
vt 0.964212 0.218298
vt 0.893231 0.208819
vt 0.968140 0.138083
vt 0.893231 0.146243
vt 0.966344 0.626550
vt 0.955160 0.638182
vt 0.939023 0.638182
vt 0.934927 0.182149
vt 0.930664 0.183545
vt 0.930705 0.182574
vt 0.934353 0.181527
vt 0.926467 0.182236
vt 0.927116 0.181680
vt 0.954711 0.599228
vt 0.966344 0.610412
vt 0.934558 0.173877
vt 0.936148 0.178152
vt 0.935178 0.178152
vt 0.933991 0.174420
vt 0.927390 0.610861
vt 0.938574 0.599228
vt 0.926928 0.174234
vt 0.930840 0.173175
vt 0.930858 0.174046
vt 0.927463 0.174840
vt 0.927390 0.626998
vt 0.925764 0.178134
vt 0.926682 0.178205
vt 0.918013 0.177976
vt 0.921745 0.169192
vt 0.921295 0.186895
vt 0.930657 0.164775
vt 0.940098 0.168269
vt 0.944718 0.178169
vt 0.940045 0.187766
vt 0.930283 0.191549
vn 0.986537 0.000000 0.163536
vn 0.930535 0.000000 0.366203
vn -0.000002 -0.986537 0.163536
vn -0.000002 -0.930535 0.366203
vn 0.000000 0.930535 0.366203
vn 0.000000 0.986537 0.163535
vn -0.930535 0.000000 0.366203
vn -0.986537 0.000000 0.163536
vn -0.707106 -0.707108 0.000000
vn -0.707107 -0.707107 0.000000
vn -0.860678 0.503149 0.077938
vn -0.707108 -0.707106 0.000000
vn 0.503150 -0.860678 0.077939
vn -0.707104 -0.707109 0.000000
vn -0.707108 0.707106 -0.000000
vn -0.860678 -0.503148 0.077939
vn -0.707107 0.707107 0.000000
vn -0.707106 0.707108 0.000000
vn -0.707104 0.707109 0.000000
vn 0.503150 0.860677 0.077938
vn 0.707108 0.707106 -0.000000
vn 0.707107 0.707107 0.000000
vn 0.860678 -0.503149 0.077939
vn 0.707106 0.707108 0.000000
vn -0.503150 0.860678 0.077938
vn 0.707104 0.707109 0.000000
vn 0.707106 -0.707108 -0.000000
vn 0.707107 -0.707107 0.000000
vn -0.503150 -0.860678 0.077938
vn 0.707108 -0.707106 -0.000000
vn 0.860678 0.503148 0.077939
vn 0.000000 0.000000 -1.000000
vn 0.989506 0.000000 -0.144489
vn 0.000000 0.989507 -0.144488
vn 0.000000 -0.989507 -0.144488
vn -0.989506 0.000000 -0.144489
vn 0.703504 0.703507 -0.100795
vn 0.383100 0.900946 -0.203792
vn 0.703507 0.703504 -0.100795
vn 0.900946 0.383100 -0.203792
vn 0.703504 -0.703507 -0.100795
vn 0.900945 -0.383101 -0.203793
vn 0.703507 -0.703504 -0.100795
vn 0.383101 -0.900945 -0.203793
vn -0.703507 -0.703505 -0.100794
vn -0.383100 -0.900946 -0.203792
vn -0.703505 -0.703507 -0.100794
vn -0.900946 -0.383100 -0.203792
vn -0.703505 0.703507 -0.100794
vn -0.900946 0.383100 -0.203792
vn -0.703507 0.703505 -0.100794
vn -0.383100 0.900946 -0.203792
usemtl data/units/archer/archer.tga
s off
f 32/1/1 41/2/1 31/3/1
f 32/1/2 31/3/2 12/4/2
f 41/2/3 29/5/3 31/3/3
f 29/5/4 11/6/4 31/3/4
f 9/7/5 26/8/5 32/1/5
f 26/8/6 41/2/6 32/1/6
f 26/8/7 10/9/7 29/5/7
f 26/8/8 29/5/8 41/2/8
f 51/10/9 16/11/9 4/12/9
f 42/13/10 51/10/10 4/12/10
f 51/14/11 43/15/11 16/16/11
f 52/17/12 3/18/12 16/11/12
f 43/15/13 52/19/13 16/16/13
f 52/17/14 44/20/14 3/18/14
f 53/21/15 4/12/15 15/22/15
f 45/23/16 53/24/16 15/25/16
f 53/21/17 42/13/17 4/12/17
f 15/22/18 1/26/18 54/27/18
f 54/27/19 1/26/19 46/28/19
f 54/29/20 45/23/20 15/25/20
f 55/30/21 14/31/21 2/32/21
f 47/33/22 55/30/22 2/32/22
f 55/34/23 48/35/23 14/36/23
f 56/37/24 1/26/24 14/31/24
f 48/35/25 56/38/25 14/36/25
f 46/28/26 1/26/26 56/37/26
f 57/39/27 13/40/27 3/18/27
f 44/20/28 57/39/28 3/18/28
f 57/41/29 49/42/29 13/43/29
f 58/44/30 2/32/30 13/40/30
f 49/42/31 58/45/31 13/43/31
f 58/44/28 47/33/28 2/32/28
f 62/46/32 66/47/32 61/48/32
f 62/49/33 61/50/33 50/51/33
f 65/52/32 62/46/32 59/53/32
f 62/49/34 50/51/34 59/54/34
f 50/51/35 61/50/35 60/55/35
f 61/48/32 64/56/32 60/57/32
f 59/54/36 50/51/36 60/55/36
f 59/53/32 60/57/32 63/58/32
f 66/47/32 58/45/32 61/48/32
f 58/45/32 49/42/32 61/48/32
f 48/35/32 55/34/32 62/46/32
f 55/34/32 66/47/32 62/46/32
f 55/30/32 47/33/32 58/44/32
f 55/30/32 58/44/32 66/59/32
f 54/29/32 65/52/32 59/53/32
f 54/29/32 59/53/32 45/23/32
f 46/28/32 56/37/32 65/60/32
f 46/28/32 65/60/32 54/27/32
f 56/38/32 48/35/32 62/46/32
f 56/38/32 62/46/32 65/52/32
f 60/57/32 64/56/32 52/19/32
f 60/57/32 52/19/32 43/15/32
f 64/61/32 57/39/32 44/20/32
f 64/61/32 44/20/32 52/17/32
f 61/48/32 49/42/32 57/41/32
f 61/48/32 57/41/32 64/56/32
f 53/21/32 63/62/32 51/10/32
f 53/21/32 51/10/32 42/13/32
f 63/58/32 60/57/32 51/14/32
f 60/57/32 43/15/32 51/14/32
f 45/23/32 59/53/32 53/24/32
f 59/53/32 63/58/32 53/24/32
f 30/63/37 40/64/37 32/1/37
f 30/63/38 32/1/38 12/4/38
f 40/64/39 27/65/39 32/1/39
f 27/65/40 9/7/40 32/1/40
f 6/66/24 17/67/24 40/68/24
f 6/66/24 40/68/24 30/69/24
f 17/67/21 5/70/21 27/71/21
f 17/67/21 27/71/21 40/68/21
f 28/72/41 39/73/41 31/3/41
f 28/72/42 31/3/42 11/6/42
f 39/73/43 30/63/43 31/3/43
f 30/63/44 12/4/44 31/3/44
f 7/74/27 18/75/27 39/76/27
f 7/74/27 39/76/27 28/77/27
f 18/75/30 6/66/30 30/69/30
f 18/75/30 30/69/30 39/76/30
f 25/78/45 38/79/45 29/5/45
f 25/78/46 29/5/46 10/9/46
f 38/79/47 28/72/47 29/5/47
f 28/72/48 11/6/48 29/5/48
f 8/80/12 19/81/12 38/82/12
f 8/80/12 38/82/12 25/83/12
f 19/81/9 7/74/9 28/77/9
f 19/81/9 28/77/9 38/82/9
f 27/65/49 37/84/49 26/8/49
f 27/65/50 26/8/50 9/7/50
f 37/84/51 25/78/51 26/8/51
f 25/78/52 10/9/52 26/8/52
f 5/70/18 20/85/18 37/86/18
f 5/70/18 37/86/18 27/71/18
f 20/85/15 8/80/15 25/83/15
f 20/85/15 25/83/15 37/86/15
f 20/85/15 36/87/15 24/88/15
f 20/85/15 24/88/15 8/80/15
f 36/87/15 15/22/15 4/12/15
f 36/87/15 4/12/15 24/88/15
f 5/70/18 22/89/18 20/85/18
f 22/89/18 36/87/18 20/85/18
f 22/89/18 1/26/18 36/87/18
f 1/26/18 15/22/18 36/87/18
f 16/11/12 35/90/12 24/88/12
f 16/11/9 24/88/9 4/12/9
f 35/90/12 19/81/12 8/80/12
f 35/90/12 8/80/12 24/88/12
f 3/18/9 23/91/9 35/90/9
f 3/18/12 35/90/12 16/11/12
f 23/91/9 7/74/9 19/81/9
f 23/91/9 19/81/9 35/90/9
f 13/40/27 34/92/27 3/18/27
f 34/92/27 23/91/27 3/18/27
f 34/92/27 18/75/27 23/91/27
f 18/75/27 7/74/27 23/91/27
f 2/32/30 21/93/30 13/40/30
f 21/93/30 34/92/30 13/40/30
f 21/93/30 6/66/30 34/92/30
f 6/66/30 18/75/30 34/92/30
f 14/31/21 33/94/21 2/32/21
f 33/94/21 21/93/21 2/32/21
f 33/94/21 17/67/21 21/93/21
f 17/67/24 6/66/24 21/93/24
f 1/26/24 22/89/24 14/31/24
f 22/89/24 33/94/24 14/31/24
f 22/89/24 5/70/24 33/94/24
f 5/70/21 17/67/21 33/94/21
