# Blender3D v248 OBJ File: wall.blend
# www.blender3d.org
o TC_TEAM
v 0.102019 2.010043 1.343775
v 0.102019 1.334839 1.343775
v 0.102019 1.334839 0.668571
v 0.102019 2.010043 0.668571
v -0.852864 1.672441 1.006173
v 0.102019 1.672441 1.006173
v 0.102019 1.672441 4.006173
v -0.852864 1.672441 4.006173
v 0.102019 2.010043 3.668571
v 0.102019 1.334839 3.668571
v 0.102019 1.334839 4.343775
v 0.102019 2.010043 4.343775
v 4.928012 1.322253 4.343774
v 4.869164 1.994888 4.343774
v 4.869164 1.994888 3.668570
v 4.928012 1.322253 3.668570
v 5.849838 1.741794 4.006172
v 4.898588 1.658571 4.006172
v 4.898588 1.658570 1.006173
v 5.849837 1.741794 1.006173
v 4.928011 1.322253 0.668571
v 4.869164 1.994888 0.668571
v 4.869164 1.994888 1.343775
v 4.928012 1.322253 1.343775
v 1.337602 1.322253 0.078161
v 1.337602 1.994888 0.137009
v 0.662398 1.994888 0.137009
v 0.662398 1.322253 0.078161
v 1.000000 1.741794 -0.843665
v 1.000000 1.658570 0.107585
v 4.000000 1.658570 0.107585
v 4.000000 1.741794 -0.843665
v 3.662398 1.322253 0.078161
v 3.662397 1.994888 0.137009
v 4.337602 1.994888 0.137009
v 4.337602 1.322253 0.078161
v 4.337602 2.010043 4.904154
v 4.337602 1.334839 4.904154
v 3.662398 1.334839 4.904154
v 3.662398 2.010043 4.904154
v 4.000000 1.672441 5.859037
v 4.000000 1.672441 4.904154
v 1.000000 1.672441 4.904154
v 1.000000 1.672441 5.859037
v 0.662398 2.010043 4.904154
v 0.662398 1.334839 4.904154
v 1.337602 1.334839 4.904154
v 1.337602 2.010043 4.904154
vt 0.673293 0.044650
vt 0.966992 0.044650
vt 0.966992 0.338349
vn -0.333333 0.000000 0.942809
vn -0.333333 -0.942809 -0.000000
vn -0.333333 0.000001 -0.942809
vn -0.333333 0.942809 0.000000
vn 1.000000 0.000000 0.000000
vn 1.000000 -0.000000 -0.000001
vn 1.000000 0.000001 0.000000
vn -0.333333 0.942809 0.000001
vn -0.333333 -0.000000 -0.942809
vn 0.332065 0.029052 0.942809
vn 0.249894 0.968273 -0.000000
vn 0.332064 0.029052 -0.942809
vn 0.414236 -0.910170 0.000000
vn -0.996195 -0.087156 -0.000001
vn -0.996195 -0.087156 0.000000
vn -0.996195 -0.087156 0.000001
vn -0.996195 -0.087155 0.000000
vn 0.414236 -0.910169 0.000000
vn 0.332065 0.029051 -0.942809
vn 0.249894 0.968273 -0.000001
vn 0.942809 0.029052 -0.332065
vn -0.000000 0.968273 -0.249894
vn -0.942809 0.029052 -0.332065
vn 0.000000 -0.910170 -0.414236
vn 0.000000 -0.087155 0.996195
vn -0.942809 0.029051 -0.332065
vn 0.942809 0.000000 0.333334
vn -0.000000 -0.942809 0.333333
vn -0.942809 0.000000 0.333333
vn 0.000000 0.942809 0.333333
vn 0.000000 0.000000 -1.000000
vn 0.942809 0.000000 0.333333
usemtl data/buildings/wall/wall.tga
s off
f 2/1/1 1/2/1 5/3/1
f 5/1/2 3/2/2 2/3/2
f 5/1/3 4/2/3 3/3/3
f 5/1/4 1/2/4 4/3/4
f 6/1/5 1/2/5 2/3/5
f 6/1/5 2/2/5 3/3/5
f 6/1/5 3/2/5 4/3/5
f 4/1/5 1/2/5 6/3/5
f 7/1/6 9/2/6 12/3/6
f 7/1/7 10/2/7 9/3/7
f 7/1/7 11/2/7 10/3/7
f 7/1/6 12/2/6 11/3/6
f 8/1/8 12/2/8 9/3/8
f 8/1/9 9/2/9 10/3/9
f 8/1/2 10/2/2 11/3/2
f 8/1/1 11/2/1 12/3/1
f 17/1/10 14/2/10 13/3/10
f 17/1/11 15/2/11 14/3/11
f 17/1/12 16/2/12 15/3/12
f 17/1/13 13/2/13 16/3/13
f 18/1/14 13/2/14 14/3/14
f 18/1/15 14/2/15 15/3/15
f 18/1/16 15/2/16 16/3/16
f 18/1/17 16/2/17 13/3/17
f 19/1/16 21/2/16 24/3/16
f 19/1/16 22/2/16 21/3/16
f 19/1/16 23/2/16 22/3/16
f 19/1/16 24/2/16 23/3/16
f 20/1/18 24/2/18 21/3/18
f 20/1/19 21/2/19 22/3/19
f 20/1/20 22/2/20 23/3/20
f 20/1/10 23/2/10 24/3/10
f 29/1/21 26/2/21 25/3/21
f 29/1/22 27/2/22 26/3/22
f 29/1/23 28/2/23 27/3/23
f 29/1/24 25/2/24 28/3/24
f 30/1/25 25/2/25 26/3/25
f 30/1/25 26/2/25 27/3/25
f 30/1/25 27/2/25 28/3/25
f 30/1/25 28/2/25 25/3/25
f 31/1/25 33/2/25 36/3/25
f 31/1/25 34/2/25 33/3/25
f 31/1/25 35/2/25 34/3/25
f 31/1/25 36/2/25 35/3/25
f 32/1/24 36/2/24 33/3/24
f 32/1/26 33/2/26 34/3/26
f 32/1/22 34/2/22 35/3/22
f 32/1/21 35/2/21 36/3/21
f 41/1/27 38/2/27 37/3/27
f 41/1/28 39/2/28 38/3/28
f 41/1/29 40/2/29 39/3/29
f 41/1/30 37/2/30 40/3/30
f 42/1/31 37/2/31 38/3/31
f 42/1/31 38/2/31 39/3/31
f 42/1/31 39/2/31 40/3/31
f 42/1/31 40/2/31 37/3/31
f 43/1/31 45/2/31 48/3/31
f 43/1/31 46/2/31 45/3/31
f 43/1/31 47/2/31 46/3/31
f 43/1/31 48/2/31 47/3/31
f 44/1/30 48/2/30 45/3/30
f 44/1/29 45/2/29 46/3/29
f 44/1/28 46/2/28 47/3/28
f 44/1/32 47/2/32 48/3/32
o MAIN
v 5.009748 3.650166 0.017866
v 5.009748 0.015918 0.017866
v 0.015918 0.015919 0.017866
v 0.015919 3.650167 0.017866
v 5.009749 3.650165 5.011695
v 5.009746 0.015917 5.011695
v 0.015918 0.015919 5.011695
v 0.015919 3.650166 5.011695
v 0.913430 4.660067 0.915376
v 0.913430 4.660067 4.114184
v 4.112237 4.660067 0.915376
v 4.112238 4.660066 4.114184
v 3.298252 3.937349 1.729362
v 1.727415 3.937349 1.729362
v 3.298253 3.937349 3.300200
v 1.727415 3.937349 3.300200
vt 0.134489 0.559898
vt 0.134489 0.638537
vt 0.055850 0.638537
vt 0.055850 0.559898
vt 0.651938 0.896148
vt 0.649935 0.828531
vt 0.671231 0.875440
vt 0.671510 0.847018
vt 0.718398 0.826884
vt 0.717417 0.893166
vt 0.699119 0.873676
vt 0.698040 0.847577
vt 0.748050 0.923162
vt 0.620490 0.925381
vt 0.620976 0.797001
vt 0.748054 0.797109
vt 0.351729 0.269336
vt 0.351729 0.487770
vt 0.192764 0.487770
vt 0.192764 0.269336
vt 0.626644 0.462648
vt 0.460129 0.462648
vt 0.626644 0.296133
vt 0.460129 0.296133
vt 0.192764 0.924638
vt 0.192764 0.706204
vt 0.351729 0.924638
vt 0.351729 0.706204
vt 0.192764 0.050903
vt 0.351728 0.050903
vn 0.000000 1.000000 0.000000
vn 0.663941 0.747785 0.000000
vn -0.663941 0.747785 0.000000
vn -0.663940 0.747786 0.000000
vn 0.000000 0.747785 -0.663941
vn 0.000000 0.747786 -0.663940
vn 0.000000 0.747785 0.663941
vn 0.000000 0.664290 -0.747475
vn 0.000000 0.664290 0.747475
vn 0.747475 0.664290 -0.000000
vn -0.747475 0.664290 0.000000
vn -1.000000 0.000000 -0.000000
vn -0.000000 -1.000000 -0.000000
vn 1.000000 -0.000001 0.000000
vn 0.000000 0.000000 1.000000
usemtl data/buildings/wall/wall.tga
s off
f 63/4/33 61/5/33 62/6/33
f 63/4/33 62/6/33 64/7/33
f 57/8/34 58/9/34 62/10/34
f 58/9/34 64/11/34 62/10/34
f 60/12/35 59/13/35 61/14/35
f 60/12/36 61/14/36 63/15/36
f 58/9/37 60/12/37 64/11/37
f 60/12/38 63/15/38 64/11/38
f 59/13/39 57/8/39 62/10/39
f 59/13/39 62/10/39 61/14/39
f 49/16/40 52/17/40 57/8/40
f 49/16/40 57/8/40 59/13/40
f 56/18/41 53/19/41 60/12/41
f 56/18/41 60/12/41 58/9/41
f 53/19/42 49/16/42 60/12/42
f 49/16/42 59/13/42 60/12/42
f 52/17/43 56/18/43 58/9/43
f 52/17/43 58/9/43 57/8/43
f 51/20/44 55/21/44 56/22/44
f 51/20/44 56/22/44 52/23/44
f 50/24/45 54/25/45 51/26/45
f 54/25/45 55/27/45 51/26/45
f 49/28/5 53/29/5 50/30/5
f 53/29/46 54/31/46 50/30/46
f 53/29/47 56/22/47 54/31/47
f 56/22/47 55/21/47 54/31/47
f 49/32/31 50/33/31 51/20/31
f 49/32/31 51/20/31 52/23/31
