# Blender3D v248 OBJ File: barracks.blend
# www.blender3d.org
o TC_TEAM
v 12.816360 6.608651 4.400205
v 12.791280 6.622317 1.292886
v 2.002291 6.625317 1.379977
v 2.027371 6.611651 4.487296
v 9.683930 6.623180 1.317969
v 9.709009 6.609515 4.425288
v 5.237805 6.610758 4.461381
v 5.212726 6.624424 1.354062
v 4.192912 6.268000 11.574674
v 1.281947 6.268809 11.598172
v 1.300823 6.258523 13.936933
v 4.211789 6.257713 13.913435
v 10.552114 6.255845 13.886295
v 13.369610 6.255062 13.863550
v 13.350380 6.265541 11.480897
v 10.532884 6.266324 11.503642
v 8.804545 7.249761 4.179532
v 8.783596 7.261177 1.583913
v 6.256761 7.261880 1.604311
v 6.277710 7.250464 4.199929
v 1.562984 5.902073 0.976174
v 1.594587 5.884852 4.891761
v 5.640114 5.883727 4.859105
v 5.608511 5.900948 0.943517
v 9.420337 5.899888 0.912747
v 9.451940 5.882667 4.828334
v 13.335961 5.898799 0.881139
v 13.367564 5.881578 4.796726
v 13.856842 5.784339 11.112508
v 10.182097 5.785361 11.142173
v 10.207179 5.771694 14.249773
v 13.881924 5.770672 14.220108
v 0.937460 5.774408 14.293243
v 4.734114 5.773352 14.262596
v 4.709495 5.786768 11.212243
v 0.912840 5.787824 11.242891
vt 0.725208 0.343159
vt 0.776124 0.345692
vt 0.755910 0.360902
vt 0.741497 0.363132
vt 0.774404 0.393590
vt 0.724051 0.395194
vt 0.757530 0.376422
vt 0.743088 0.375716
vt 0.681799 0.398146
vt 0.682006 0.350583
vt 0.690470 0.386720
vt 0.691774 0.360363
vt 0.724051 0.396852
vt 0.715124 0.387052
vt 0.724051 0.349796
vt 0.714130 0.358651
vt 0.723019 0.398146
vt 0.724051 0.446752
vt 0.715253 0.435413
vt 0.713510 0.408236
vt 0.681453 0.398146
vt 0.691455 0.406938
vt 0.682401 0.446261
vt 0.691055 0.436222
vt 0.739564 0.332710
vt 0.763817 0.331923
vt 0.762372 0.404982
vt 0.739061 0.407456
vt 0.730858 0.292477
vt 0.779209 0.295595
vt 0.767282 0.306199
vt 0.740759 0.306414
vt 0.730294 0.446752
vt 0.740207 0.431538
vt 0.766928 0.430523
vt 0.779209 0.441299
vn -0.904497 0.426382 0.009175
vn -0.904497 0.426381 0.009176
vn 0.904764 0.425879 -0.005429
vn 0.007402 0.431598 0.902036
vn 0.007401 0.431598 0.902036
vn -0.007128 0.439515 -0.898207
vn 0.000314 0.999990 0.004396
vn -0.006268 0.603699 -0.797188
vn -0.006268 0.603700 -0.797187
vn 0.687892 0.725810 -0.002360
vn 0.687892 0.725809 -0.002360
vn -0.811157 0.584758 0.009119
vn -0.811157 0.584757 0.009119
vn 0.006640 0.597342 0.801959
vn 0.006684 0.589489 0.807748
vn 0.006684 0.589490 0.807748
vn -0.796524 0.604538 0.009088
vn -0.796524 0.604539 0.009088
vn 0.680772 0.732492 -0.002273
vn -0.006308 0.597258 -0.802024
vn 0.000313 0.999990 0.004395
vn 0.876106 0.482093 -0.004951
vn 0.876106 0.482092 -0.004951
vn -0.941140 0.337896 0.009082
vn -0.941139 0.337897 0.009082
vn -0.856916 0.515374 0.009183
vn -0.006897 0.490667 -0.871320
vn 0.007202 0.482984 0.875600
vn 0.797873 0.602814 -0.003788
vn 0.797873 0.602814 -0.003789
vn 0.000314 0.999990 0.004395
usemtl data/buildings/barracks/barracks.tga
s off
f 24/1/1 23/2/1 20/3/1
f 24/1/2 20/3/2 19/4/2
f 26/5/3 25/6/3 17/7/3
f 25/6/3 18/8/3 17/7/3
f 23/2/4 26/5/4 17/7/4
f 23/2/5 17/7/5 20/3/5
f 25/6/6 24/1/6 19/4/6
f 25/6/6 19/4/6 18/8/6
f 17/7/7 18/8/7 19/4/7
f 17/7/7 19/4/7 20/3/7
f 29/9/8 30/10/8 15/11/8
f 30/10/9 16/12/9 15/11/9
f 32/13/10 29/9/10 14/14/10
f 29/9/11 15/11/11 14/14/11
f 30/10/12 31/15/12 13/16/12
f 30/10/13 13/16/13 16/12/13
f 31/15/14 32/13/14 14/14/14
f 31/15/14 14/14/14 13/16/14
f 33/17/15 34/18/15 12/19/15
f 33/17/16 12/19/16 11/20/16
f 36/21/17 33/17/17 10/22/17
f 33/17/18 11/20/18 10/22/18
f 34/18/19 35/23/19 9/24/19
f 34/18/19 9/24/19 12/19/19
f 35/23/20 36/21/20 9/24/20
f 36/21/20 10/22/20 9/24/20
f 15/11/21 16/12/21 14/14/21
f 16/12/21 13/16/21 14/14/21
f 9/24/7 10/22/7 11/20/7
f 9/24/7 11/20/7 12/19/7
f 23/2/22 24/1/22 8/25/22
f 23/2/23 8/25/23 7/26/23
f 25/6/24 26/5/24 6/27/24
f 25/6/25 6/27/25 5/28/25
f 21/29/26 22/30/26 4/31/26
f 21/29/26 4/31/26 3/32/26
f 24/1/27 21/29/27 3/32/27
f 24/1/27 3/32/27 8/25/27
f 22/30/28 23/2/28 4/31/28
f 23/2/28 7/26/28 4/31/28
f 27/33/27 25/6/27 2/34/27
f 25/6/27 5/28/27 2/34/27
f 1/35/28 6/27/28 26/5/28
f 1/35/28 26/5/28 28/36/28
f 2/34/29 1/35/29 27/33/29
f 1/35/30 28/36/30 27/33/30
f 7/26/31 8/25/31 3/32/31
f 7/26/31 3/32/31 4/31/31
f 6/27/7 1/35/7 2/34/7
f 6/27/21 2/34/21 5/28/21
o MAIN
v 14.618596 3.218123 5.192492
v 14.617610 0.074708 5.178676
v 14.579268 0.095601 0.428003
v 14.580254 3.239016 0.441821
v 9.867879 3.219443 5.230842
v 9.866893 0.076029 5.217024
v 9.828550 0.096923 0.466352
v 9.829535 3.240337 0.480169
v 5.243098 3.220730 5.268175
v 5.204755 3.241623 0.517502
v 5.203769 0.098209 0.503685
v 5.242112 0.077315 5.254356
v 0.333789 0.078680 5.293978
v 0.334774 3.222095 5.307796
v 0.295446 0.099574 0.543306
v 0.296431 3.242988 0.557123
v 14.662563 3.194164 10.640018
v 9.911846 3.195485 10.678369
v 14.661577 0.050750 10.626202
v 9.910860 0.052070 10.664549
v 0.378026 0.054574 10.774977
v 5.286350 0.053209 10.735355
v 0.379012 3.197989 10.788796
v 5.287335 3.196623 10.749175
v 5.318178 0.035864 14.678859
v 5.319164 3.179279 14.692677
v 0.410840 3.180644 14.732299
v 0.409854 0.037230 14.718480
v 14.694989 3.176496 14.657531
v 14.694003 0.033081 14.643714
v 9.944272 3.177816 14.695881
v 9.943286 0.034401 14.682061
v 9.944272 3.177816 14.695881
v 14.694989 3.176496 14.657531
v 9.911846 3.195485 10.678369
v 14.662563 3.194164 10.640018
v 10.181437 3.679299 11.132915
v 13.856181 3.678278 11.103251
v 13.881263 3.664611 14.210850
v 10.206518 3.665632 14.240515
v 4.733454 3.667290 14.253338
v 0.936799 3.668347 14.283986
v 0.912180 3.681763 11.233633
v 4.708834 3.680707 11.202986
v 0.912840 5.787824 11.242891
v 4.709495 5.786768 11.212243
v 4.734114 5.773352 14.262596
v 0.937460 5.774408 14.293243
v 13.881924 5.770672 14.220108
v 10.207179 5.771694 14.249773
v 10.182097 5.785361 11.142173
v 13.856842 5.784339 11.112508
v 1.593888 3.655138 4.881960
v 1.562285 3.672359 0.966372
v 5.607812 3.671233 0.933716
v 5.639415 3.654012 4.849304
v 9.451241 3.652952 4.818533
v 9.419637 3.670173 0.902946
v 13.335262 3.669085 0.871338
v 13.366865 3.651864 4.786925
v 13.367564 5.881578 4.796726
v 13.335961 5.898799 0.881139
v 9.451940 5.882667 4.828334
v 9.420337 5.899888 0.912747
v 5.608511 5.900948 0.943517
v 5.640114 5.883727 4.859105
v 1.594587 5.884852 4.891761
v 1.562984 5.902073 0.976174
v 9.911353 1.623778 10.671459
v 5.286842 1.624916 10.742265
v 5.303249 3.187951 12.720925
v 5.318671 1.607572 14.685768
v 5.302264 0.044537 12.707107
v 9.927073 0.043236 12.673306
v 9.943779 1.606109 14.688971
v 9.928059 3.186651 12.687124
v 5.302757 1.616244 12.714016
v 9.927566 1.614943 12.680215
v 7.113271 0.044033 12.692488
v 7.113764 1.615740 12.699397
v 7.097850 1.624412 10.727645
v 7.097357 0.052705 10.720737
v 8.194659 1.624255 10.685316
v 8.210873 1.615421 12.694073
v 8.210380 0.043713 12.687163
v 8.194166 0.052548 10.678406
vt 0.843080 0.909404
vt 0.733810 0.957050
vt 0.733810 0.861758
vt 0.844131 0.860304
vt 0.844131 0.907908
vt 0.734956 0.860304
vt 0.314773 0.492350
vt 0.389973 0.509599
vt 0.350415 0.682060
vt 0.845044 0.909075
vt 0.734680 0.955732
vt 0.735534 0.860444
vt 0.223175 0.496599
vt 0.300726 0.485465
vt 0.244418 0.677497
vt 0.844786 0.909221
vt 0.844786 0.956925
vt 0.734710 0.956925
vt 0.113527 0.090877
vt 0.129697 0.131129
vt 0.097357 0.131129
vt 0.097357 0.090877
vt 0.129697 0.090877
vt 0.939374 0.968557
vt 0.896397 0.879748
vt 0.982354 0.879749
vt 0.982353 0.968557
vt 0.896396 0.968556
vt 0.113557 0.052949
vt 0.097083 0.013989
vt 0.130030 0.013989
vt 0.130030 0.052949
vt 0.097083 0.052949
vt 0.939383 0.021677
vt 0.982361 0.107632
vt 0.896406 0.107632
vt 0.896406 0.021677
vt 0.982361 0.021677
vt 0.217702 0.432327
vt 0.196469 0.475369
vt 0.185770 0.393897
vt 0.207882 0.372696
vt 0.832559 0.054412
vt 0.811236 0.054471
vt 0.813161 0.035669
vt 0.834483 0.035609
vt 0.850147 0.070881
vt 0.792374 0.070881
vt 0.795572 0.019199
vt 0.853345 0.019199
vt 0.813871 0.036144
vt 0.832566 0.035804
vt 0.831113 0.052105
vt 0.812418 0.052445
vt 0.796859 0.020187
vt 0.851091 0.020188
vt 0.793893 0.068061
vt 0.848125 0.068061
vt 0.404560 0.446004
vt 0.329360 0.428755
vt 0.343947 0.365161
vt 0.419147 0.382410
vt 0.254160 0.411506
vt 0.268747 0.347912
vt 0.366575 0.410769
vt 0.292149 0.422623
vt 0.282309 0.360842
vt 0.356735 0.348988
vt 0.609020 0.026934
vt 0.742842 0.026934
vt 0.742842 0.142102
vt 0.609020 0.142102
vt 0.233921 0.926783
vt 0.101408 0.868218
vt 0.194727 0.830213
vt 0.262340 0.848699
vt 0.129124 0.717351
vt 0.255291 0.696020
vt 0.266810 0.762277
vt 0.191804 0.774090
vt 0.742060 0.141403
vt 0.611785 0.141403
vt 0.611785 0.026234
vt 0.742060 0.026234
vt 0.741479 0.141438
vt 0.611204 0.141438
vt 0.611204 0.026269
vt 0.741479 0.026269
vt 0.458040 0.904006
vt 0.331446 0.934808
vt 0.316154 0.851449
vt 0.352485 0.842108
vt 0.337985 0.698707
vt 0.447371 0.730799
vt 0.321855 0.765550
vt 0.359909 0.779897
vt 0.608180 0.026914
vt 0.742002 0.026914
vt 0.742003 0.142083
vt 0.608180 0.142083
vt 0.500822 0.716565
vt 0.509151 0.920104
vt 0.344728 0.955793
vt 0.217391 0.946267
vt 0.079451 0.696143
vt 0.049685 0.876587
vt 0.613035 0.032724
vt 0.738625 0.032724
vt 0.738625 0.141506
vt 0.613035 0.141506
vt 0.557926 0.401300
vt 0.522025 0.492637
vt 0.488218 0.439808
vt 0.489124 0.434243
vt 0.423062 0.471159
vt 0.438413 0.364877
vt 0.482400 0.437693
vt 0.484237 0.433925
vt 0.739094 0.140218
vt 0.613505 0.140219
vt 0.739094 0.031437
vt 0.613505 0.031437
vt 0.741214 0.140219
vt 0.611458 0.140219
vt 0.611458 0.031437
vt 0.741214 0.031437
vt 0.086847 0.484801
vt 0.094799 0.388875
vt 0.140670 0.430960
vt 0.141482 0.434574
vt 0.146268 0.430359
vt 0.145897 0.435292
vt 0.740034 0.139653
vt 0.610278 0.139653
vt 0.610278 0.030871
vt 0.740035 0.030871
vt 0.058628 0.511917
vt 0.071351 0.366491
vt 0.418397 0.327839
vt 0.603756 0.384219
vt 0.395736 0.490331
vt 0.546141 0.524819
vt 0.540378 0.544093
vt 0.982360 0.180322
vt 0.896406 0.180322
vt 0.896398 0.808396
vt 0.982354 0.808397
vt 0.896400 0.709226
vt 0.982355 0.709227
vt 0.052407 0.131130
vt 0.052407 0.090877
vt 0.982360 0.278885
vt 0.896406 0.278885
vt 0.052407 0.052949
vt 0.052407 0.013989
vt 0.896402 0.623271
vt 0.982356 0.623272
vt 0.896404 0.534465
vt 0.982358 0.534467
vt 0.013447 0.090877
vt 0.013447 0.131130
vt 0.842264 0.567095
vt 0.842264 0.814879
vt 0.601049 0.814879
vt 0.601049 0.567095
vt 0.013447 0.052949
vt 0.896405 0.450791
vt 0.982359 0.450792
vt 0.982360 0.364838
vt 0.896406 0.364838
vt 0.013447 0.013989
vn -0.999967 0.000278 0.008072
vn 0.999967 -0.000278 -0.008072
vn -0.000314 -0.999990 -0.004396
vn 0.008071 -0.004398 0.999958
vn -0.000313 -0.999990 -0.004395
vn 0.008071 -0.004399 0.999958
vn 0.008070 -0.004398 0.999958
vn 0.640917 0.767608 -0.001797
vn 0.640916 0.767609 -0.001797
vn -0.008070 0.004399 -0.999958
vn -0.000314 -0.999990 -0.004395
vn -0.008071 0.004398 -0.999958
vn 0.326974 0.945032 0.001517
vn 0.006018 0.692185 0.721695
vn -0.005582 0.698506 -0.715583
vn -0.323174 0.946315 0.006770
vn -0.005727 0.680264 -0.732945
vn -0.675915 0.736929 0.008697
vn -0.675914 0.736929 0.008697
vn 0.006157 0.673132 0.739497
vn 0.006157 0.673131 0.739497
vn 0.006103 0.680608 0.732622
vn 0.006103 0.680607 0.732623
vn -0.877150 0.480129 0.009191
vn 0.514556 0.857457 -0.000382
vn 0.514557 0.857456 -0.000382
vn -0.005680 0.686387 -0.727214
vn -0.005680 0.686387 -0.727215
vn 0.000000 0.000000 0.000000
usemtl data/buildings/barracks/barracks.tga
s off
f 105/37/32 41/38/32 42/39/32
f 56/40/32 105/41/32 42/42/32
f 105/43/32 54/44/32 41/45/32
f 106/46/33 48/47/33 45/48/33
f 60/49/33 106/50/33 45/51/33
f 106/52/33 58/53/33 48/54/33
f 109/55/34 64/56/34 57/57/34
f 58/58/34 109/55/34 57/57/34
f 109/55/34 61/59/34 64/56/34
f 108/60/35 63/61/35 64/62/35
f 61/63/35 108/60/35 64/62/35
f 108/60/35 62/64/35 63/61/35
f 110/65/36 55/66/36 66/67/36
f 68/68/36 110/65/36 66/67/36
f 110/65/36 56/69/36 55/66/36
f 111/70/35 66/71/35 65/72/35
f 67/73/37 111/70/37 65/72/37
f 111/70/38 68/74/38 66/71/38
f 107/75/39 80/76/39 77/77/39
f 62/78/40 107/75/40 77/77/40
f 107/75/39 60/49/39 80/76/39
f 119/79/32 122/80/32 121/81/32
f 119/79/32 121/81/32 120/82/32
f 105/83/41 56/84/41 122/80/41
f 105/83/41 122/80/41 119/79/41
f 56/84/42 110/85/42 121/81/42
f 56/84/42 121/81/42 122/80/42
f 110/85/35 114/86/35 120/82/35
f 110/85/35 120/82/35 121/81/35
f 114/86/31 105/83/31 119/79/31
f 114/86/31 119/79/31 120/82/31
f 118/87/33 117/88/33 116/89/33
f 118/87/33 116/89/33 115/90/33
f 58/91/43 106/92/43 117/88/43
f 58/91/43 117/88/43 118/87/43
f 109/93/34 58/91/34 118/87/34
f 109/93/34 118/87/34 115/90/34
f 106/92/7 113/94/7 116/89/7
f 106/92/7 116/89/7 117/88/7
f 113/94/35 109/93/35 115/90/35
f 113/94/35 115/90/35 116/89/35
f 112/95/32 114/96/32 111/97/32
f 112/95/32 111/97/32 67/98/32
f 114/96/32 110/99/32 68/100/32
f 114/96/32 68/100/32 111/97/32
f 54/44/32 105/43/32 114/96/32
f 54/44/32 114/96/32 112/95/32
f 109/101/33 113/102/33 108/103/33
f 109/101/33 108/103/33 61/104/33
f 113/102/33 107/75/33 62/78/33
f 113/102/33 62/78/33 108/103/33
f 106/50/33 60/49/33 113/102/33
f 60/49/33 107/75/33 113/102/33
f 90/105/32 89/106/32 103/107/32
f 90/105/32 103/107/32 104/108/32
f 91/109/43 90/110/43 104/111/43
f 91/109/43 104/111/43 101/112/43
f 89/113/35 92/114/35 102/115/35
f 89/113/35 102/115/35 103/116/35
f 92/117/35 93/118/35 99/119/35
f 92/117/35 99/119/35 102/120/35
f 94/121/43 91/122/43 101/123/43
f 94/121/43 101/123/43 100/124/43
f 95/125/43 94/126/43 100/127/43
f 95/125/43 100/127/43 98/128/43
f 93/129/35 96/130/35 99/131/35
f 96/130/35 97/132/35 99/131/35
f 96/133/33 95/134/33 98/135/33
f 96/133/33 98/135/33 97/136/33
f 37/137/44 40/138/44 96/130/44
f 40/138/44 95/125/44 96/130/44
f 41/45/45 37/137/45 96/130/45
f 41/45/45 96/130/45 93/129/45
f 40/138/46 44/139/46 95/125/46
f 44/139/46 94/126/46 95/125/46
f 44/139/46 46/140/46 94/126/46
f 46/140/46 91/109/46 94/126/46
f 45/51/45 41/45/45 93/129/45
f 45/51/45 93/129/45 92/114/45
f 50/141/45 45/51/45 89/113/45
f 45/51/45 92/114/45 89/113/45
f 46/140/46 52/142/46 90/110/46
f 46/140/46 90/110/46 91/109/46
f 52/142/47 50/141/47 89/113/47
f 52/142/47 89/113/47 90/110/47
f 74/143/43 73/144/43 87/145/43
f 74/143/43 87/145/43 88/146/43
f 75/147/33 74/148/33 88/149/33
f 75/147/33 88/149/33 85/150/33
f 73/151/32 76/152/32 87/153/32
f 76/152/32 86/154/32 87/153/32
f 76/155/35 75/156/35 86/157/35
f 75/156/35 85/158/35 86/157/35
f 78/159/35 77/160/35 83/161/35
f 78/159/35 83/161/35 84/162/35
f 79/163/32 78/164/32 84/165/32
f 79/163/32 84/165/32 81/166/32
f 77/77/33 80/76/33 83/167/33
f 80/76/33 82/168/33 83/167/33
f 80/169/43 79/170/43 81/171/43
f 80/169/43 81/171/43 82/172/43
f 60/49/48 59/173/48 80/76/48
f 59/173/48 79/163/48 80/76/48
f 59/173/49 63/174/49 79/163/49
f 63/174/50 78/164/50 79/163/50
f 63/174/51 62/78/51 77/77/51
f 63/174/52 77/77/52 78/164/52
f 69/175/53 70/176/53 75/147/53
f 69/175/54 75/147/54 76/152/54
f 71/177/55 69/175/55 76/152/55
f 71/177/55 76/152/55 73/151/55
f 70/176/56 72/178/56 75/147/56
f 72/178/57 74/148/57 75/147/57
f 72/178/58 71/177/58 74/148/58
f 71/177/59 73/151/59 74/148/59
f 53/179/60 54/44/60 71/177/60
f 53/179/60 71/177/60 72/178/60
f 55/180/33 53/181/33 65/72/33
f 55/180/33 65/72/33 66/71/33
f 59/182/32 57/183/32 64/62/32
f 59/182/32 64/62/32 63/61/32
f 45/51/7 50/141/7 59/173/7
f 45/51/7 59/173/7 60/49/7
f 50/184/32 49/185/32 57/183/32
f 50/184/32 57/183/32 59/182/32
f 49/186/34 48/187/34 58/58/34
f 49/186/34 58/58/34 57/57/34
f 38/188/33 37/189/33 53/181/33
f 38/188/33 53/181/33 55/180/33
f 42/190/36 38/191/36 56/69/36
f 38/191/36 55/66/36 56/69/36
f 37/137/21 41/45/21 53/179/21
f 41/45/31 54/44/31 53/179/31
f 50/184/32 52/192/32 51/193/32
f 50/184/32 51/193/32 49/185/32
f 46/194/43 47/195/43 51/193/43
f 46/194/43 51/193/43 52/192/43
f 47/196/34 48/187/34 49/186/34
f 47/196/34 49/186/34 51/197/34
f 42/198/35 41/199/35 45/200/35
f 42/198/35 45/200/35 48/201/35
f 43/202/34 42/190/34 48/187/34
f 43/202/34 48/187/34 47/196/34
f 44/203/43 43/204/43 47/195/43
f 44/203/43 47/195/43 46/194/43
f 39/205/43 43/204/43 44/203/43
f 39/205/43 44/203/43 40/206/43
f 38/191/36 42/190/36 39/207/36
f 42/190/34 43/202/34 39/207/34
f 37/189/33 38/188/33 39/205/33
f 37/189/33 39/205/33 40/206/33
