# Blender3D v248 OBJ File: barracks.blend
# www.blender3d.org
o TC_TEAM
v 12.816360 6.439587 4.400205
v 12.791280 6.453254 1.292886
v 2.002291 6.456254 1.379977
v 2.027371 6.442588 4.487296
v 9.683930 6.454117 1.317969
v 9.709009 6.440452 4.425288
v 5.237805 6.441695 4.461381
v 5.212726 6.455360 1.354062
v 4.192912 6.098936 11.574674
v 1.281947 6.099746 11.598172
v 1.300823 6.089460 13.936933
v 4.211789 6.088650 13.913435
v 10.552114 6.086782 13.886295
v 13.369610 6.085999 13.863550
v 13.350380 6.096478 11.480897
v 10.532884 6.097261 11.503642
v 8.804545 7.080698 4.179532
v 8.783596 7.092114 1.583913
v 6.256761 7.092817 1.604311
v 6.277710 7.081401 4.199929
v 1.562984 5.733010 0.976174
v 1.594587 5.715789 4.891761
v 5.640114 5.714664 4.859105
v 5.608511 5.731884 0.943517
v 9.420337 5.730824 0.912747
v 9.451940 5.713603 4.828334
v 13.335961 5.729736 0.881139
v 13.367564 5.712515 4.796726
v 13.856842 5.615276 11.112508
v 10.182097 5.616297 11.142173
v 10.207179 5.602630 14.249773
v 13.881924 5.601609 14.220108
v 0.937460 5.605345 14.293243
v 4.734114 5.604289 14.262596
v 4.709495 5.617705 11.212243
v 0.912840 5.618761 11.242891
vt 0.725208 0.343159
vt 0.776124 0.345692
vt 0.755910 0.360902
vt 0.741497 0.363132
vt 0.774404 0.393590
vt 0.724051 0.395194
vt 0.757530 0.376422
vt 0.743088 0.375716
vt 0.681799 0.398146
vt 0.682006 0.350583
vt 0.690470 0.386720
vt 0.691774 0.360363
vt 0.724051 0.396852
vt 0.715124 0.387052
vt 0.724051 0.349796
vt 0.714130 0.358651
vt 0.723019 0.398146
vt 0.724051 0.446752
vt 0.715253 0.435413
vt 0.713510 0.408236
vt 0.681453 0.398146
vt 0.691455 0.406938
vt 0.682401 0.446261
vt 0.691055 0.436222
vt 0.739564 0.332710
vt 0.763817 0.331923
vt 0.762372 0.404982
vt 0.739061 0.407456
vt 0.730858 0.292477
vt 0.779209 0.295595
vt 0.767282 0.306199
vt 0.740759 0.306414
vt 0.730294 0.446752
vt 0.740207 0.431538
vt 0.766928 0.430523
vt 0.779209 0.441299
vn -0.904497 0.426382 0.009175
vn -0.904497 0.426381 0.009176
vn 0.904764 0.425879 -0.005429
vn 0.904764 0.425878 -0.005429
vn 0.007402 0.431598 0.902036
vn 0.007401 0.431598 0.902036
vn -0.007128 0.439515 -0.898207
vn 0.000314 0.999990 0.004396
vn -0.006268 0.603699 -0.797188
vn 0.687891 0.725810 -0.002360
vn 0.687892 0.725809 -0.002360
vn -0.811157 0.584757 0.009119
vn -0.811158 0.584757 0.009119
vn 0.006640 0.597342 0.801959
vn 0.006640 0.597341 0.801960
vn 0.006684 0.589489 0.807748
vn -0.796524 0.604539 0.009088
vn -0.796524 0.604538 0.009088
vn 0.680771 0.732493 -0.002273
vn 0.680772 0.732492 -0.002273
vn -0.006308 0.597258 -0.802024
vn 0.000314 0.999990 0.004395
vn 0.876106 0.482093 -0.004951
vn 0.876107 0.482092 -0.004951
vn -0.941140 0.337896 0.009082
vn -0.941139 0.337897 0.009082
vn -0.856916 0.515374 0.009183
vn -0.006897 0.490667 -0.871320
vn 0.007202 0.482984 0.875600
vn 0.797873 0.602814 -0.003788
vn 0.000313 0.999990 0.004395
usemtl data/buildings/barracks/barracks.tga
s off
f 24/1/1 23/2/1 20/3/1
f 24/1/2 20/3/2 19/4/2
f 26/5/3 25/6/3 17/7/3
f 25/6/4 18/8/4 17/7/4
f 23/2/5 26/5/5 17/7/5
f 23/2/6 17/7/6 20/3/6
f 25/6/7 24/1/7 19/4/7
f 25/6/7 19/4/7 18/8/7
f 17/7/8 18/8/8 19/4/8
f 17/7/8 19/4/8 20/3/8
f 29/9/9 30/10/9 15/11/9
f 30/10/9 16/12/9 15/11/9
f 32/13/10 29/9/10 14/14/10
f 29/9/11 15/11/11 14/14/11
f 30/10/12 31/15/12 13/16/12
f 30/10/13 13/16/13 16/12/13
f 31/15/14 32/13/14 14/14/14
f 31/15/15 14/14/15 13/16/15
f 33/17/16 34/18/16 12/19/16
f 33/17/16 12/19/16 11/20/16
f 36/21/17 33/17/17 10/22/17
f 33/17/18 11/20/18 10/22/18
f 34/18/19 35/23/19 9/24/19
f 34/18/20 9/24/20 12/19/20
f 35/23/21 36/21/21 9/24/21
f 36/21/21 10/22/21 9/24/21
f 15/11/22 16/12/22 14/14/22
f 16/12/22 13/16/22 14/14/22
f 9/24/22 10/22/22 11/20/22
f 9/24/22 11/20/22 12/19/22
f 23/2/23 24/1/23 8/25/23
f 23/2/24 8/25/24 7/26/24
f 25/6/25 26/5/25 6/27/25
f 25/6/26 6/27/26 5/28/26
f 21/29/27 22/30/27 4/31/27
f 21/29/27 4/31/27 3/32/27
f 24/1/28 21/29/28 3/32/28
f 24/1/28 3/32/28 8/25/28
f 22/30/29 23/2/29 4/31/29
f 23/2/29 7/26/29 4/31/29
f 27/33/28 25/6/28 2/34/28
f 25/6/28 5/28/28 2/34/28
f 1/35/29 6/27/29 26/5/29
f 1/35/29 26/5/29 28/36/29
f 2/34/30 1/35/30 27/33/30
f 1/35/30 28/36/30 27/33/30
f 7/26/22 8/25/22 3/32/22
f 7/26/22 3/32/22 4/31/22
f 6/27/8 1/35/8 2/34/8
f 6/27/31 2/34/31 5/28/31
o MAIN
v 14.618596 3.049059 5.192492
v 14.617610 -0.094355 5.178676
v 14.579268 -0.073462 0.428003
v 14.580254 3.069953 0.441821
v 9.867879 3.050380 5.230842
v 9.866893 -0.093034 5.217024
v 9.828550 -0.072141 0.466352
v 9.829535 3.071273 0.480169
v 5.243098 3.051666 5.268175
v 5.204755 3.072560 0.517502
v 5.203769 -0.070854 0.503685
v 5.242112 -0.091748 5.254356
v 0.333789 -0.090383 5.293978
v 0.334774 3.053031 5.307796
v 0.295446 -0.069489 0.543306
v 0.296431 3.073925 0.557123
v 14.662563 3.025101 10.640018
v 9.911846 3.026422 10.678369
v 14.661577 -0.118313 10.626202
v 9.910860 -0.116993 10.664549
v 0.378026 -0.114489 10.774977
v 5.286350 -0.115854 10.735355
v 0.379012 3.028925 10.788796
v 5.287335 3.027560 10.749175
v 5.318178 -0.133199 14.678859
v 5.319164 3.010216 14.692677
v 0.410840 3.011581 14.732299
v 0.409854 -0.131834 14.718480
v 14.694989 3.007432 14.657531
v 14.694003 -0.135982 14.643714
v 9.944272 3.008753 14.695881
v 9.943286 -0.134662 14.682061
v 9.944272 3.008753 14.695881
v 14.694989 3.007432 14.657531
v 9.911846 3.026422 10.678369
v 14.662563 3.025101 10.640018
v 10.181437 3.510236 11.132915
v 13.856181 3.509215 11.103251
v 13.881263 3.495548 14.210850
v 10.206518 3.496569 14.240515
v 4.733454 3.498227 14.253338
v 0.936799 3.499283 14.283986
v 0.912180 3.512700 11.233633
v 4.708834 3.511644 11.202986
v 0.912840 5.618761 11.242891
v 4.709495 5.617705 11.212243
v 4.734114 5.604289 14.262596
v 0.937460 5.605345 14.293243
v 13.881924 5.601609 14.220108
v 10.207179 5.602630 14.249773
v 10.182097 5.616297 11.142173
v 13.856842 5.615276 11.112508
v 1.593888 3.486074 4.881960
v 1.562285 3.503295 0.966372
v 5.607812 3.502170 0.933716
v 5.639415 3.484949 4.849304
v 9.451241 3.483889 4.818533
v 9.419637 3.501110 0.902946
v 13.335262 3.500021 0.871338
v 13.366865 3.482801 4.786925
v 13.367564 5.712515 4.796726
v 13.335961 5.729736 0.881139
v 9.451940 5.713603 4.828334
v 9.420337 5.730824 0.912747
v 5.608511 5.731884 0.943517
v 5.640114 5.714664 4.859105
v 1.594587 5.715789 4.891761
v 1.562984 5.733010 0.976174
v 9.911353 1.454715 10.671459
v 5.286842 1.455853 10.742265
v 5.303249 3.018888 12.720925
v 5.318671 1.438508 14.685768
v 5.302264 -0.124527 12.707107
v 9.927073 -0.125827 12.673306
v 9.943779 1.437045 14.688971
v 9.928059 3.017587 12.687124
v 5.302757 1.447181 12.714016
v 9.927566 1.445880 12.680215
v 7.113271 -0.125030 12.692488
v 7.113764 1.446677 12.699397
v 7.097850 1.455349 10.727645
v 7.097357 -0.116358 10.720737
v 8.194659 1.455192 10.685316
v 8.210873 1.446357 12.694073
v 8.210380 -0.125350 12.687163
v 8.194166 -0.116515 10.678406
vt 0.843080 0.909404
vt 0.733810 0.957050
vt 0.733810 0.861758
vt 0.844131 0.860304
vt 0.844131 0.907908
vt 0.734956 0.860304
vt 0.314773 0.492350
vt 0.389973 0.509599
vt 0.350415 0.682060
vt 0.845044 0.909075
vt 0.734680 0.955732
vt 0.735534 0.860444
vt 0.223175 0.496599
vt 0.300726 0.485465
vt 0.244418 0.677497
vt 0.844786 0.909221
vt 0.844786 0.956925
vt 0.734710 0.956925
vt 0.113527 0.090877
vt 0.129697 0.131129
vt 0.097357 0.131129
vt 0.097357 0.090877
vt 0.129697 0.090877
vt 0.939374 0.968557
vt 0.896397 0.879748
vt 0.982354 0.879749
vt 0.982353 0.968557
vt 0.896396 0.968556
vt 0.113557 0.052949
vt 0.097083 0.013989
vt 0.130030 0.013989
vt 0.130030 0.052949
vt 0.097083 0.052949
vt 0.939383 0.021677
vt 0.982361 0.107632
vt 0.896406 0.107632
vt 0.896406 0.021677
vt 0.982361 0.021677
vt 0.217702 0.432327
vt 0.196469 0.475369
vt 0.185770 0.393897
vt 0.207882 0.372696
vt 0.832559 0.054412
vt 0.811236 0.054471
vt 0.813161 0.035669
vt 0.834483 0.035609
vt 0.850147 0.070881
vt 0.792374 0.070881
vt 0.795572 0.019199
vt 0.853345 0.019199
vt 0.813871 0.036144
vt 0.832566 0.035804
vt 0.831113 0.052105
vt 0.812418 0.052445
vt 0.796859 0.020187
vt 0.851091 0.020188
vt 0.793893 0.068061
vt 0.848125 0.068061
vt 0.404560 0.446004
vt 0.329360 0.428755
vt 0.343947 0.365161
vt 0.419147 0.382410
vt 0.254160 0.411506
vt 0.268747 0.347912
vt 0.366575 0.410769
vt 0.292149 0.422623
vt 0.282309 0.360842
vt 0.356735 0.348988
vt 0.609020 0.026934
vt 0.742842 0.026934
vt 0.742842 0.142102
vt 0.609020 0.142102
vt 0.233921 0.926783
vt 0.101408 0.868218
vt 0.194727 0.830213
vt 0.262340 0.848699
vt 0.129124 0.717351
vt 0.255291 0.696020
vt 0.266810 0.762277
vt 0.191804 0.774090
vt 0.742060 0.141403
vt 0.611785 0.141403
vt 0.611785 0.026234
vt 0.742060 0.026234
vt 0.741479 0.141438
vt 0.611204 0.141438
vt 0.611204 0.026269
vt 0.741479 0.026269
vt 0.458040 0.904006
vt 0.331446 0.934808
vt 0.316154 0.851449
vt 0.352485 0.842108
vt 0.337985 0.698707
vt 0.447371 0.730799
vt 0.321855 0.765550
vt 0.359909 0.779897
vt 0.608180 0.026914
vt 0.742002 0.026914
vt 0.742003 0.142083
vt 0.608180 0.142083
vt 0.500822 0.716565
vt 0.509151 0.920104
vt 0.344728 0.955793
vt 0.217391 0.946267
vt 0.079451 0.696143
vt 0.049685 0.876587
vt 0.613035 0.032724
vt 0.738625 0.032724
vt 0.738625 0.141506
vt 0.613035 0.141506
vt 0.557926 0.401300
vt 0.522025 0.492637
vt 0.488218 0.439808
vt 0.489124 0.434243
vt 0.423062 0.471159
vt 0.438413 0.364877
vt 0.482400 0.437693
vt 0.484237 0.433925
vt 0.739094 0.140218
vt 0.613505 0.140219
vt 0.739094 0.031437
vt 0.613505 0.031437
vt 0.741214 0.140219
vt 0.611458 0.140219
vt 0.611458 0.031437
vt 0.741214 0.031437
vt 0.086847 0.484801
vt 0.094799 0.388875
vt 0.140670 0.430960
vt 0.141482 0.434574
vt 0.146268 0.430359
vt 0.145897 0.435292
vt 0.740034 0.139653
vt 0.610278 0.139653
vt 0.610278 0.030871
vt 0.740035 0.030871
vt 0.058628 0.511917
vt 0.071351 0.366491
vt 0.418397 0.327839
vt 0.603756 0.384219
vt 0.395736 0.490331
vt 0.546141 0.524819
vt 0.540378 0.544093
vt 0.982360 0.180322
vt 0.896406 0.180322
vt 0.896398 0.808396
vt 0.982354 0.808397
vt 0.896400 0.709226
vt 0.982355 0.709227
vt 0.052407 0.131130
vt 0.052407 0.090877
vt 0.982360 0.278885
vt 0.896406 0.278885
vt 0.052407 0.052949
vt 0.052407 0.013989
vt 0.896402 0.623271
vt 0.982356 0.623272
vt 0.896404 0.534465
vt 0.982358 0.534467
vt 0.013447 0.090877
vt 0.013447 0.131130
vt 0.842264 0.567095
vt 0.842264 0.814879
vt 0.601049 0.814879
vt 0.601049 0.567095
vt 0.013447 0.052949
vt 0.896405 0.450791
vt 0.982359 0.450792
vt 0.982360 0.364838
vt 0.896406 0.364838
vt 0.013447 0.013989
vn -0.999967 0.000278 0.008072
vn 0.999967 -0.000278 -0.008072
vn -0.000314 -0.999990 -0.004396
vn 0.008071 -0.004398 0.999958
vn -0.000313 -0.999990 -0.004395
vn 0.008071 -0.004399 0.999958
vn 0.008070 -0.004398 0.999958
vn 0.640917 0.767608 -0.001797
vn -0.008070 0.004399 -0.999958
vn -0.000314 -0.999990 -0.004395
vn -0.008071 0.004398 -0.999958
vn 0.326974 0.945032 0.001517
vn 0.006018 0.692185 0.721695
vn -0.005582 0.698506 -0.715583
vn -0.323174 0.946315 0.006770
vn -0.005727 0.680264 -0.732945
vn -0.675915 0.736929 0.008697
vn -0.675914 0.736929 0.008697
vn 0.006157 0.673132 0.739497
vn 0.006103 0.680608 0.732623
vn 0.006103 0.680607 0.732623
vn -0.877150 0.480129 0.009191
vn 0.514557 0.857456 -0.000382
vn -0.005680 0.686387 -0.727214
vn -0.005680 0.686387 -0.727215
vn 0.000000 0.000000 0.000000
usemtl data/buildings/barracks/barracks.tga
s off
f 105/37/32 41/38/32 42/39/32
f 56/40/32 105/41/32 42/42/32
f 105/43/32 54/44/32 41/45/32
f 106/46/33 48/47/33 45/48/33
f 60/49/33 106/50/33 45/51/33
f 106/52/33 58/53/33 48/54/33
f 109/55/34 64/56/34 57/57/34
f 58/58/34 109/55/34 57/57/34
f 109/55/34 61/59/34 64/56/34
f 108/60/35 63/61/35 64/62/35
f 61/63/35 108/60/35 64/62/35
f 108/60/35 62/64/35 63/61/35
f 110/65/36 55/66/36 66/67/36
f 68/68/36 110/65/36 66/67/36
f 110/65/36 56/69/36 55/66/36
f 111/70/35 66/71/35 65/72/35
f 67/73/37 111/70/37 65/72/37
f 111/70/38 68/74/38 66/71/38
f 107/75/39 80/76/39 77/77/39
f 62/78/39 107/75/39 77/77/39
f 107/75/39 60/49/39 80/76/39
f 119/79/32 122/80/32 121/81/32
f 119/79/32 121/81/32 120/82/32
f 105/83/40 56/84/40 122/80/40
f 105/83/40 122/80/40 119/79/40
f 56/84/41 110/85/41 121/81/41
f 56/84/41 121/81/41 122/80/41
f 110/85/35 114/86/35 120/82/35
f 110/85/35 120/82/35 121/81/35
f 114/86/22 105/83/22 119/79/22
f 114/86/22 119/79/22 120/82/22
f 118/87/33 117/88/33 116/89/33
f 118/87/33 116/89/33 115/90/33
f 58/91/42 106/92/42 117/88/42
f 58/91/42 117/88/42 118/87/42
f 109/93/34 58/91/34 118/87/34
f 109/93/34 118/87/34 115/90/34
f 106/92/8 113/94/8 116/89/8
f 106/92/8 116/89/8 117/88/8
f 113/94/35 109/93/35 115/90/35
f 113/94/35 115/90/35 116/89/35
f 112/95/32 114/96/32 111/97/32
f 112/95/32 111/97/32 67/98/32
f 114/96/32 110/99/32 68/100/32
f 114/96/32 68/100/32 111/97/32
f 54/44/32 105/43/32 114/96/32
f 54/44/32 114/96/32 112/95/32
f 109/101/33 113/102/33 108/103/33
f 109/101/33 108/103/33 61/104/33
f 113/102/33 107/75/33 62/78/33
f 113/102/33 62/78/33 108/103/33
f 106/50/33 60/49/33 113/102/33
f 60/49/33 107/75/33 113/102/33
f 90/105/32 89/106/32 103/107/32
f 90/105/32 103/107/32 104/108/32
f 91/109/42 90/110/42 104/111/42
f 91/109/42 104/111/42 101/112/42
f 89/113/35 92/114/35 102/115/35
f 89/113/35 102/115/35 103/116/35
f 92/117/35 93/118/35 99/119/35
f 92/117/35 99/119/35 102/120/35
f 94/121/42 91/122/42 101/123/42
f 94/121/42 101/123/42 100/124/42
f 95/125/42 94/126/42 100/127/42
f 95/125/42 100/127/42 98/128/42
f 93/129/35 96/130/35 99/131/35
f 96/130/35 97/132/35 99/131/35
f 96/133/33 95/134/33 98/135/33
f 96/133/33 98/135/33 97/136/33
f 37/137/43 40/138/43 96/130/43
f 40/138/43 95/125/43 96/130/43
f 41/45/44 37/137/44 96/130/44
f 41/45/44 96/130/44 93/129/44
f 40/138/45 44/139/45 95/125/45
f 44/139/45 94/126/45 95/125/45
f 44/139/45 46/140/45 94/126/45
f 46/140/45 91/109/45 94/126/45
f 45/51/44 41/45/44 93/129/44
f 45/51/44 93/129/44 92/114/44
f 50/141/44 45/51/44 89/113/44
f 45/51/44 92/114/44 89/113/44
f 46/140/45 52/142/45 90/110/45
f 46/140/45 90/110/45 91/109/45
f 52/142/46 50/141/46 89/113/46
f 52/142/46 89/113/46 90/110/46
f 74/143/42 73/144/42 87/145/42
f 74/143/42 87/145/42 88/146/42
f 75/147/33 74/148/33 88/149/33
f 75/147/33 88/149/33 85/150/33
f 73/151/32 76/152/32 87/153/32
f 76/152/32 86/154/32 87/153/32
f 76/155/35 75/156/35 86/157/35
f 75/156/35 85/158/35 86/157/35
f 78/159/35 77/160/35 83/161/35
f 78/159/35 83/161/35 84/162/35
f 79/163/32 78/164/32 84/165/32
f 79/163/32 84/165/32 81/166/32
f 77/77/33 80/76/33 83/167/33
f 80/76/33 82/168/33 83/167/33
f 80/169/42 79/170/42 81/171/42
f 80/169/42 81/171/42 82/172/42
f 60/49/47 59/173/47 80/76/47
f 59/173/47 79/163/47 80/76/47
f 59/173/48 63/174/48 79/163/48
f 63/174/49 78/164/49 79/163/49
f 63/174/50 62/78/50 77/77/50
f 63/174/50 77/77/50 78/164/50
f 69/175/51 70/176/51 75/147/51
f 69/175/52 75/147/52 76/152/52
f 71/177/53 69/175/53 76/152/53
f 71/177/53 76/152/53 73/151/53
f 70/176/54 72/178/54 75/147/54
f 72/178/54 74/148/54 75/147/54
f 72/178/55 71/177/55 74/148/55
f 71/177/56 73/151/56 74/148/56
f 53/179/57 54/44/57 71/177/57
f 53/179/57 71/177/57 72/178/57
f 55/180/33 53/181/33 65/72/33
f 55/180/33 65/72/33 66/71/33
f 59/182/32 57/183/32 64/62/32
f 59/182/32 64/62/32 63/61/32
f 45/51/8 50/141/8 59/173/8
f 45/51/8 59/173/8 60/49/8
f 50/184/32 49/185/32 57/183/32
f 50/184/32 57/183/32 59/182/32
f 49/186/34 48/187/34 58/58/34
f 49/186/34 58/58/34 57/57/34
f 38/188/33 37/189/33 53/181/33
f 38/188/33 53/181/33 55/180/33
f 42/190/36 38/191/36 56/69/36
f 38/191/36 55/66/36 56/69/36
f 37/137/31 41/45/31 53/179/31
f 41/45/31 54/44/31 53/179/31
f 50/184/32 52/192/32 51/193/32
f 50/184/32 51/193/32 49/185/32
f 46/194/42 47/195/42 51/193/42
f 46/194/42 51/193/42 52/192/42
f 47/196/34 48/187/34 49/186/34
f 47/196/34 49/186/34 51/197/34
f 42/198/35 41/199/35 45/200/35
f 42/198/35 45/200/35 48/201/35
f 43/202/34 42/190/34 48/187/34
f 43/202/34 48/187/34 47/196/34
f 44/203/42 43/204/42 47/195/42
f 44/203/42 47/195/42 46/194/42
f 39/205/42 43/204/42 44/203/42
f 39/205/42 44/203/42 40/206/42
f 38/191/36 42/190/36 39/207/36
f 42/190/34 43/202/34 39/207/34
f 37/189/33 38/188/33 39/205/33
f 37/189/33 39/205/33 40/206/33
