# Blender3D v248 OBJ File: gold.blend
# www.blender3d.org
o Cone
v 0.747868 0.144251 0.271312
v 0.846526 0.144251 0.509494
v 0.747868 0.144251 0.747675
v 0.509686 0.144251 0.846333
v 0.271505 0.144251 0.747675
v 0.172847 0.144251 0.509494
v 0.271505 0.144251 0.271312
v 0.509686 0.144251 0.172654
v 0.509686 0.284972 0.509494
v 0.821423 0.054296 0.197757
v 0.509686 0.054296 0.068631
v 0.197949 0.054296 0.197757
v 0.068824 0.054296 0.509494
v 0.197949 0.054296 0.821230
v 0.509686 0.054296 0.950356
v 0.821423 0.054296 0.821230
v 0.950549 0.054296 0.509494
v 0.853670 -0.008069 0.165510
v 0.996153 -0.008069 0.509494
v 0.853670 -0.008069 0.853477
v 0.509686 -0.008069 0.995960
v 0.165702 -0.008069 0.853477
v 0.023220 -0.008069 0.509494
v 0.165702 -0.008069 0.165510
v 0.509686 -0.008069 0.023027
v 0.509686 -0.008069 0.509494
v 0.301556 0.396016 0.463711
v 0.359286 0.397795 0.579266
v 0.291180 0.371742 0.685903
v 0.165344 0.343911 0.676987
v 0.107614 0.342133 0.561433
v 0.175720 0.368185 0.454795
v 0.206502 0.488077 0.581994
v 0.368274 0.032882 0.451701
v 0.269854 0.011114 0.444727
v 0.216586 0.022930 0.528132
v 0.261738 0.024321 0.618511
v 0.360159 0.013896 0.625485
v 0.413427 0.034273 0.542080
v 0.315006 0.044697 0.535106
v 0.662139 0.102253 0.500108
v 0.711438 0.056976 0.518043
v 0.675349 0.090121 0.567043
v 0.626051 0.135398 0.549108
v 0.612841 0.147530 0.482173
v 0.648930 0.114385 0.433173
v 0.698228 0.069108 0.451108
v 0.889478 0.349783 0.500108
v 0.816127 0.303818 0.414528
v 0.769986 0.346195 0.477177
v 0.786875 0.330684 0.562757
v 0.849905 0.272795 0.585688
v 0.896046 0.230417 0.523039
v 0.879158 0.245929 0.437459
v 0.635110 0.369011 0.142781
v 0.656791 0.378940 0.228111
v 0.597558 0.411552 0.285363
v 0.516645 0.434235 0.257285
v 0.494965 0.424305 0.171955
v 0.554197 0.391693 0.114703
v 0.625144 0.541695 0.171216
v 0.473105 0.037286 0.330236
v 0.409820 0.055027 0.308275
v 0.363492 0.080534 0.353054
v 0.380449 0.088300 0.419793
v 0.443734 0.070559 0.441754
v 0.490062 0.045052 0.396975
v 0.426777 0.062793 0.375015
v 0.742821 0.353139 0.868074
v 0.763403 0.303118 0.963946
v 0.681107 0.282650 1.034130
v 0.578229 0.312205 1.008441
v 0.557648 0.362226 0.912569
v 0.639944 0.382694 0.842385
v 0.675828 0.424920 0.983103
v 0.678580 0.069500 0.747643
v 0.598116 0.092616 0.727551
v 0.533749 0.076607 0.782444
v 0.549847 0.037484 0.857429
v 0.630311 0.014368 0.877521
v 0.694678 0.030376 0.822628
v 0.614214 0.053492 0.802536
v 0.494611 0.024424 0.512121
v 0.606988 0.017054 0.503039
v 0.559091 0.027299 0.604854
v 0.446714 0.034669 0.613937
v 0.382234 0.031794 0.521204
v 0.430130 0.021549 0.419388
v 0.542507 0.014179 0.410306
v 0.553653 0.799200 0.440422
v 0.456548 0.549994 0.339665
v 0.395310 0.563093 0.469841
v 0.477751 0.566768 0.588405
v 0.621431 0.557345 0.576793
v 0.682669 0.544246 0.446617
v 0.600228 0.540571 0.328053
vt 0.061477 0.055108
vt 0.094126 0.049713
vt 0.066719 0.042692
vt 0.071856 0.064520
vt 0.083583 0.044314
vt 0.073874 0.031614
vt 0.086292 0.058086
vt 0.073479 0.065282
vt 0.075286 0.047842
vt 0.086238 0.071990
vt 0.085516 0.063364
vt 0.084423 0.040963
vt 0.092803 0.038940
vt 0.073172 0.057490
vt 0.084331 0.066552
vt 0.087505 0.085503
vt 0.073874 0.016544
vt 0.085163 0.069996
vt 0.083583 0.071350
vt 0.077594 0.042950
vt 0.081717 0.067663
vt 0.083357 0.070673
vt 0.083808 0.069544
vt 0.081551 0.071576
vt 0.063390 0.036299
vt 0.078460 0.051369
vt 0.887343 0.562613
vt 0.939980 0.547324
vt 0.939980 0.652273
vt 0.511279 0.806211
vt 0.511279 0.683119
vt 0.564046 0.712695
vt 0.019731 0.840223
vt 0.019731 0.682540
vt 0.078687 0.716399
vt 0.645246 0.888536
vt 0.612411 0.742779
vt 0.671662 0.742779
vt 0.037465 0.853991
vt 0.100623 0.738973
vt 0.158011 0.765718
vt 0.373213 0.845663
vt 0.318215 0.746936
vt 0.373213 0.714945
vt 0.492228 0.947857
vt 0.536233 0.971493
vt 0.492228 0.994196
vt 0.318494 0.473623
vt 0.274488 0.449987
vt 0.318494 0.427284
vt 0.883448 0.964390
vt 0.839442 0.987094
vt 0.839442 0.940754
vt 0.659042 0.360675
vt 0.659042 0.407014
vt 0.615036 0.383378
vt 0.766365 0.945599
vt 0.810371 0.969235
vt 0.766365 0.991939
vt 0.895369 0.972802
vt 0.939374 0.950099
vt 0.939374 0.996438
vt 0.954972 0.315403
vt 0.948813 0.273694
vt 0.981864 0.273694
vt 0.956670 0.631949
vt 0.983562 0.590240
vt 0.989720 0.631949
vt 0.944112 0.093319
vt 0.996102 0.093319
vt 0.953799 0.158929
vt 0.986498 0.165029
vt 0.996235 0.230977
vt 0.943978 0.230977
vt 0.989720 0.653479
vt 0.962828 0.695188
vt 0.956670 0.653479
vt 0.302916 0.988079
vt 0.329808 0.946370
vt 0.335966 0.988079
vt 0.619413 0.991449
vt 0.619413 0.886152
vt 0.659741 0.936175
vt 0.386034 0.879041
vt 0.342893 0.932065
vt 0.330136 0.879041
vt 0.756183 0.051761
vt 0.700285 0.051761
vt 0.714313 0.011377
vt 0.880008 0.356946
vt 0.837721 0.318740
vt 0.880008 0.272191
vt 0.546296 0.968494
vt 0.508138 0.890693
vt 0.546296 0.851604
vt 0.474760 0.813392
vt 0.513234 0.832189
vt 0.474760 0.930282
vt 0.406969 0.672829
vt 0.446650 0.660422
vt 0.446650 0.829342
vt 0.495378 0.783949
vt 0.463792 0.678888
vt 0.495378 0.655462
vt 0.970812 0.558651
vt 0.931480 0.443075
vt 0.970812 0.421319
vt 0.602283 0.969609
vt 0.560695 0.847321
vt 0.602283 0.847006
vt 0.279142 0.979243
vt 0.279142 0.829363
vt 0.318413 0.858181
vt 0.889727 0.528251
vt 0.889727 0.359330
vt 0.929095 0.381380
vt 0.259818 0.815084
vt 0.247716 0.847216
vt 0.228183 0.815084
vt 0.372356 0.989627
vt 0.384458 0.957496
vt 0.403991 0.989627
vt 0.286762 0.808571
vt 0.259138 0.763130
vt 0.303876 0.763130
vt 0.527898 0.016540
vt 0.587770 0.018176
vt 0.563205 0.078361
vt 0.492785 0.017933
vt 0.472112 0.072825
vt 0.438741 0.017933
vt 0.207089 0.953523
vt 0.226622 0.985654
vt 0.194987 0.985654
vt 0.406969 0.829342
vt 0.454706 0.875265
vt 0.406969 0.954761
vt 0.206085 0.841455
vt 0.206085 0.700736
vt 0.253745 0.725130
vt 0.782164 0.887664
vt 0.734941 0.778137
vt 0.782164 0.746945
vt 0.155646 0.912502
vt 0.107701 0.839262
vt 0.155646 0.793780
vt 0.277857 0.019093
vt 0.354507 0.019093
vt 0.346538 0.070835
vt 0.795582 0.066066
vt 0.865289 0.012827
vt 0.869563 0.066066
vt 0.955602 0.075094
vt 0.890477 0.075094
vt 0.907370 0.015844
vt 0.216235 0.928535
vt 0.260055 0.928535
vt 0.248688 0.968402
vt 0.688937 0.421363
vt 0.700303 0.381496
vt 0.732757 0.421363
vt 0.972846 0.071355
vt 0.929620 0.018255
vt 0.987985 0.018255
vt 0.780441 0.462558
vt 0.736621 0.462558
vt 0.747987 0.422691
vt 0.181872 0.950649
vt 0.170505 0.990516
vt 0.138052 0.950649
vt 0.012150 0.965977
vt 0.038895 0.920821
vt 0.064276 0.965977
vt 0.179859 0.867681
vt 0.231984 0.867681
vt 0.205239 0.912836
vt 0.713868 0.942500
vt 0.739248 0.987655
vt 0.687123 0.987655
vt 0.130569 0.921257
vt 0.103824 0.966412
vt 0.078443 0.921257
vt 0.991738 0.368867
vt 0.939612 0.368867
vt 0.966357 0.323712
vt 0.430859 0.951646
vt 0.482984 0.951646
vt 0.456239 0.996802
vt 0.056147 0.649721
vt 0.011170 0.461074
vt 0.061358 0.461074
vt 0.093111 0.623975
vt 0.093111 0.443424
vt 0.139620 0.456616
vt 0.825453 0.552570
vt 0.778059 0.385796
vt 0.825453 0.381091
vt 0.873879 0.247138
vt 0.832626 0.100939
vt 0.873879 0.090901
vt 0.255045 0.697270
vt 0.198063 0.488507
vt 0.255045 0.472426
vt 0.339080 0.474635
vt 0.393849 0.479519
vt 0.339080 0.686197
vt 0.385957 0.417864
vt 0.345719 0.413475
vt 0.385957 0.107841
vt 0.337697 0.165983
vt 0.120768 0.421022
vt 0.080353 0.415131
vt 0.120768 0.108149
vt 0.080353 0.103412
vt 0.191919 0.446837
vt 0.143324 0.444209
vt 0.191919 0.075031
vt 0.143374 0.072406
vt 0.054896 0.422768
vt 0.012298 0.427410
vt 0.012342 0.099191
vt 0.054896 0.095749
vt 0.258152 0.439796
vt 0.211134 0.446647
vt 0.211134 0.082656
vt 0.258152 0.077150
vt 0.321830 0.412201
vt 0.281266 0.414325
vt 0.281267 0.104087
vt 0.181002 0.728163
vt 0.141186 0.700376
vt 0.181002 0.520763
vt 0.149860 0.499030
vt 0.841720 0.923723
vt 0.798855 0.910302
vt 0.841720 0.692534
vt 0.808194 0.682037
vt 0.871427 0.660499
vt 0.836373 0.674137
vt 0.844010 0.490178
vt 0.871427 0.479512
vt 0.313545 0.700303
vt 0.272114 0.726722
vt 0.281140 0.515936
vt 0.313545 0.495273
vt 0.930417 0.320204
vt 0.896717 0.329471
vt 0.904059 0.141364
vt 0.930417 0.134116
vt 0.719378 0.702763
vt 0.678733 0.684721
vt 0.719378 0.476163
vt 0.687588 0.462052
vt 0.769890 0.346197
vt 0.734013 0.353056
vt 0.734013 0.074330
vt 0.769927 0.068264
vt 0.603260 0.345420
vt 0.569782 0.364789
vt 0.569782 0.093909
vt 0.603601 0.075394
vt 0.497260 0.329422
vt 0.467667 0.341779
vt 0.467667 0.106629
vt 0.497439 0.094968
vt 0.448056 0.365745
vt 0.409979 0.359181
vt 0.448056 0.069954
vt 0.409978 0.064513
vt 0.552186 0.367258
vt 0.517681 0.350200
vt 0.552186 0.088111
vt 0.517681 0.074535
vt 0.717155 0.361563
vt 0.681480 0.348980
vt 0.717155 0.078005
vt 0.681480 0.067905
vt 0.980207 0.942946
vt 0.931132 0.901624
vt 0.980207 0.743191
vt 0.941823 0.710872
vt 0.446650 0.636580
vt 0.401824 0.605690
vt 0.446650 0.430576
vt 0.411590 0.406416
vt 0.605704 0.581506
vt 0.573199 0.589382
vt 0.580280 0.428083
vt 0.605704 0.421924
vt 0.909674 0.882585
vt 0.858604 0.921681
vt 0.869730 0.717608
vt 0.909674 0.687030
vt 0.719816 0.922723
vt 0.673231 0.950241
vt 0.683380 0.756870
vt 0.719816 0.735347
vt 0.603170 0.830518
vt 0.570373 0.821343
vt 0.603170 0.678232
vt 0.577518 0.671056
vt 0.560440 0.655143
vt 0.516705 0.655381
vt 0.525982 0.393423
vt 0.560438 0.393237
vt 0.664395 0.693388
vt 0.620368 0.678127
vt 0.664395 0.432039
vt 0.629960 0.420103
vt 0.774750 0.724245
vt 0.736093 0.710050
vt 0.774750 0.498037
vt 0.744515 0.486934
vt 0.825554 0.349758
vt 0.790703 0.348324
vt 0.825554 0.145901
vt 0.798296 0.144780
vt 0.505789 0.628347
vt 0.460914 0.641977
vt 0.470691 0.382712
vt 0.505789 0.372052
vt 0.664657 0.304192
vt 0.620985 0.318452
vt 0.630500 0.063413
vt 0.664657 0.052260
vt 0.070318 0.055151
vt 0.085389 0.055151
vt 0.070318 0.070221
vt 0.085389 0.070221
vt 0.066480 0.056506
vt 0.081551 0.056506
vt 0.066480 0.071576
vt 0.068738 0.054474
vt 0.083808 0.054474
vt 0.068738 0.069544
vt 0.068286 0.055602
vt 0.083357 0.055602
vt 0.068286 0.070673
vt 0.067383 0.052893
vt 0.082454 0.052893
vt 0.067383 0.067964
vt 0.068512 0.056280
vt 0.083583 0.056280
vt 0.068512 0.071350
vt 0.070093 0.054925
vt 0.085163 0.054925
vt 0.070093 0.069996
vt 0.066565 0.040179
vt 0.081635 0.040179
vt 0.066565 0.055250
vt 0.068061 0.047700
vt 0.083131 0.047700
vt 0.068061 0.062771
vt 0.083131 0.062771
vt 0.083583 0.059384
vt 0.068512 0.059384
vt 0.071221 0.058086
vt 0.086292 0.073156
vt 0.071221 0.073156
vt 0.056998 0.049055
vt 0.072068 0.064126
vt 0.056998 0.064126
vt 0.059526 0.040241
vt 0.074597 0.055311
vt 0.059526 0.055311
vt 0.069352 0.040963
vt 0.069352 0.056034
vt 0.084423 0.056034
vt 0.077733 0.038940
vt 0.077733 0.054011
vt 0.092803 0.054011
vt 0.086836 0.038796
vt 0.086836 0.053866
vt 0.101906 0.053866
vn 0.380660 0.911173 -0.157674
vn 0.380660 0.911173 0.157674
vn 0.157675 0.911173 0.380660
vn -0.157674 0.911173 0.380660
vn -0.380660 0.911173 0.157675
vn -0.380660 0.911173 -0.157674
vn -0.157674 0.911173 -0.380660
vn 0.157674 0.911173 -0.380660
vn -0.000000 -1.000000 -0.000000
vn 0.488273 0.834060 -0.256775
vn 0.454135 0.754192 0.474295
vn -0.183984 0.576901 0.795824
vn -0.787964 0.479478 0.386282
vn -0.753826 0.559346 -0.344788
vn -0.115707 0.736637 -0.666317
vn 0.191371 -0.947426 0.256439
vn 0.221419 -0.970473 -0.095683
vn -0.080964 -0.955089 -0.285045
vn -0.080964 -0.955088 -0.285045
vn -0.109988 -0.991450 0.070209
vn -0.676430 -0.736507 -0.000000
vn 0.598113 0.369541 -0.711126
vn 0.074363 0.850568 -0.520581
vn -0.065975 0.979459 0.190546
vn 0.317436 0.627323 0.711126
vn 0.841186 0.146296 0.520580
vn 0.981524 0.017405 -0.190545
vn 0.961806 0.097617 -0.255735
vn 0.743575 0.344844 0.572869
vn -0.070873 0.666185 0.742411
vn -0.667091 0.740299 0.083349
vn -0.448859 0.493072 -0.745255
vn 0.365589 0.171731 -0.914797
vn -0.325721 -0.926071 0.190522
vn -0.325722 -0.926071 0.190522
vn 0.814883 0.566890 0.120838
vn 0.576582 0.294706 0.762038
vn -0.138442 0.329795 0.933846
vn -0.615165 0.637066 0.464455
vn -0.376863 0.909250 -0.176744
vn 0.338160 0.874162 -0.348553
vn -0.147557 -0.889512 -0.432429
vn -0.147557 -0.889512 -0.432430
vn -0.059461 -0.995616 0.072208
vn -0.059460 -0.995616 0.072208
vn -0.059461 -0.995616 0.072207
vn -0.048675 0.390633 -0.919259
vn -0.779070 0.470908 -0.413878
vn -0.703495 0.530695 0.472713
vn 0.102476 0.510208 0.853924
vn 0.832871 0.429933 0.348544
vn 0.757296 0.370146 -0.538048
vn -0.089109 -0.144225 -0.985525
vn -0.905441 -0.018712 -0.424060
vn -0.905441 -0.018711 -0.424059
vn -0.819801 0.075058 0.567709
vn -0.819800 0.075058 0.567709
vn 0.083279 0.042913 0.995602
vn 0.898526 -0.082858 0.431028
vn 0.898527 -0.082858 0.431027
vn 0.810742 -0.176136 -0.558277
vn 0.959357 -0.106291 -0.261413
vn 0.636378 -0.475192 0.607631
vn -0.332722 -0.427635 0.840490
vn -0.332722 -0.427636 0.840490
vn -0.978843 -0.011177 0.204306
vn -0.978843 -0.011177 0.204305
vn -0.655864 0.357724 -0.664737
vn 0.313235 0.310167 -0.897597
vn 0.849456 -0.503694 -0.157217
vn 0.698604 0.012958 0.715392
vn -0.167782 0.472503 0.865211
vn -0.885390 0.430716 0.174839
vn -0.717273 -0.089700 -0.690994
vn 0.138003 -0.537495 -0.831898
vn 0.145542 -0.223322 -0.963818
vn 0.145542 -0.223323 -0.963818
vn -0.564317 0.428633 -0.705564
vn -0.754523 0.603324 0.258253
vn -0.754523 0.603324 0.258254
vn -0.234871 0.126060 0.963818
vn -0.234871 0.126059 0.963818
vn 0.474988 -0.525896 0.705564
vn 0.474988 -0.525896 0.705563
vn 0.665194 -0.700586 -0.258254
vn 0.879488 0.176209 -0.442099
vn 0.879488 0.176209 -0.442098
vn 0.833219 0.067961 0.548751
vn -0.031649 -0.172328 0.984531
vn -0.090830 -0.205682 0.974395
vn -0.841843 -0.331802 0.425686
vn -0.803979 -0.196122 -0.561386
vn -0.834272 -0.232661 -0.499859
vn 0.060889 0.044168 -0.997167
vn 0.317101 0.559805 -0.765549
vn -0.317101 0.559805 -0.765549
vn -0.765549 0.559805 -0.317101
vn -0.765549 0.559805 0.317101
vn -0.317101 0.559805 0.765549
vn 0.317101 0.559805 0.765549
vn 0.765550 0.559804 0.317101
vn 0.765549 0.559806 0.317101
vn 0.765550 0.559804 -0.317101
vn 0.765549 0.559806 -0.317101
vn 0.631344 0.730080 -0.261511
vn 0.631344 0.730080 0.261511
vn 0.261511 0.730080 0.631343
vn 0.261511 0.730080 0.631344
vn -0.261511 0.730080 0.631344
vn -0.631343 0.730080 0.261511
vn -0.631343 0.730080 -0.261511
vn -0.261511 0.730080 -0.631343
vn 0.261511 0.730080 -0.631344
usemtl data/resources/gold/gold.tga
s off
f 2/1/1 1/2/1 9/3/1
f 9/4/2 3/5/2 2/6/2
f 9/4/3 4/7/3 3/6/3
f 9/4/4 5/8/4 4/9/4
f 9/4/5 6/10/5 5/11/5
f 9/4/6 7/12/6 6/6/6
f 9/4/7 8/13/7 7/6/7
f 9/4/8 1/2/8 8/6/8
f 26/14/9 18/15/9 19/16/9
f 26/14/9 19/17/9 20/18/9
f 26/14/9 20/17/9 21/19/9
f 26/14/9 21/20/9 22/21/9
f 26/14/9 22/17/9 23/22/9
f 26/14/9 23/17/9 24/23/9
f 26/14/9 24/17/9 25/24/9
f 25/25/9 18/15/9 26/26/9
f 28/27/10 27/28/10 33/29/10
f 33/30/11 29/31/11 28/32/11
f 33/33/12 30/34/12 29/35/12
f 33/36/13 31/37/13 30/38/13
f 33/39/14 32/40/14 31/41/14
f 33/42/15 27/43/15 32/44/15
f 35/45/16 34/46/16 40/47/16
f 40/48/16 36/49/16 35/50/16
f 40/51/17 37/52/17 36/53/17
f 40/54/18 38/55/18 37/56/18
f 40/57/19 39/58/19 38/59/19
f 40/60/20 34/61/20 39/62/20
f 41/63/21 47/64/21 42/65/21
f 41/66/21 42/67/21 43/68/21
f 41/69/21 43/70/21 44/71/21
f 41/72/21 44/73/21 45/74/21
f 41/75/21 45/76/21 46/77/21
f 46/78/21 47/79/21 41/80/21
f 48/81/22 54/82/22 49/83/22
f 48/84/23 49/85/23 50/86/23
f 48/87/24 50/88/24 51/89/24
f 48/90/25 51/91/25 52/92/25
f 48/93/26 52/94/26 53/95/26
f 53/96/27 54/97/27 48/98/27
f 56/99/28 55/100/28 61/101/28
f 61/102/29 57/103/29 56/104/29
f 61/105/30 58/106/30 57/107/30
f 61/108/31 59/109/31 58/110/31
f 61/111/32 60/112/32 59/113/32
f 61/114/33 55/115/33 60/116/33
f 63/117/34 62/118/34 68/119/34
f 68/120/34 64/121/34 63/122/34
f 68/123/34 65/124/34 64/125/34
f 68/126/34 66/127/34 65/128/34
f 68/129/35 67/130/35 66/131/35
f 68/132/35 62/133/35 67/134/35
f 70/135/36 69/136/36 75/137/36
f 75/138/37 71/139/37 70/140/37
f 75/141/38 72/142/38 71/143/38
f 75/144/39 73/145/39 72/146/39
f 75/147/40 74/148/40 73/149/40
f 75/150/41 69/151/41 74/152/41
f 77/153/42 76/154/42 82/155/42
f 82/156/42 78/157/42 77/158/42
f 82/159/43 79/160/43 78/161/43
f 82/162/42 80/163/42 79/164/42
f 82/165/42 81/166/42 80/167/42
f 82/168/42 76/169/42 81/170/42
f 83/171/44 89/172/44 84/173/44
f 83/174/44 84/175/44 85/176/44
f 83/177/45 85/178/45 86/179/45
f 83/180/46 86/181/46 87/182/46
f 83/183/44 87/184/44 88/185/44
f 88/186/44 89/187/44 83/188/44
f 90/189/47 96/190/47 91/191/47
f 90/192/48 91/193/48 92/194/48
f 90/195/49 92/196/49 93/197/49
f 90/198/50 93/199/50 94/200/50
f 90/201/51 94/202/51 95/203/51
f 95/204/52 96/205/52 90/206/52
f 91/207/53 96/208/53 88/209/53
f 96/208/53 89/210/53 88/209/53
f 92/211/54 91/212/54 87/213/54
f 91/212/55 88/214/55 87/213/55
f 93/215/56 92/216/56 86/217/56
f 92/216/57 87/218/57 86/217/57
f 94/219/58 93/220/58 86/221/58
f 94/219/58 86/221/58 85/222/58
f 95/223/59 94/224/59 85/225/59
f 95/223/60 85/225/60 84/226/60
f 96/227/61 95/228/61 84/229/61
f 96/227/61 84/229/61 89/210/61
f 69/230/62 70/231/62 76/232/62
f 70/231/62 81/233/62 76/232/62
f 70/234/63 71/235/63 81/236/63
f 71/235/63 80/237/63 81/236/63
f 71/238/64 72/239/64 79/240/64
f 71/238/65 79/240/65 80/241/65
f 72/242/66 73/243/66 78/244/66
f 72/242/67 78/244/67 79/245/67
f 73/246/68 74/247/68 77/248/68
f 73/246/68 77/248/68 78/249/68
f 74/250/69 69/251/69 77/252/69
f 69/251/69 76/253/69 77/252/69
f 55/254/70 56/255/70 67/256/70
f 55/254/70 67/256/70 62/257/70
f 56/258/71 57/259/71 66/260/71
f 56/258/71 66/260/71 67/261/71
f 57/262/72 58/263/72 65/264/72
f 57/262/72 65/264/72 66/265/72
f 58/266/73 59/267/73 65/268/73
f 59/267/73 64/269/73 65/268/73
f 59/270/74 60/271/74 64/272/74
f 60/271/74 63/273/74 64/272/74
f 60/274/75 55/275/75 63/276/75
f 55/275/75 62/277/75 63/276/75
f 49/278/76 54/279/76 46/280/76
f 54/279/77 47/281/77 46/280/77
f 50/282/78 49/283/78 45/284/78
f 49/283/78 46/285/78 45/284/78
f 51/286/79 50/287/79 45/288/79
f 51/286/80 45/288/80 44/289/80
f 52/290/81 51/291/81 44/292/81
f 52/290/82 44/292/82 43/293/82
f 53/294/83 52/295/83 43/296/83
f 53/294/84 43/296/84 42/297/84
f 54/298/85 53/299/85 47/300/85
f 53/299/85 42/301/85 47/300/85
f 27/302/86 28/303/86 39/304/86
f 27/302/87 39/304/87 34/305/87
f 28/306/88 29/307/88 39/308/88
f 29/307/88 38/309/88 39/308/88
f 29/310/89 30/311/89 38/312/89
f 30/311/90 37/313/90 38/312/90
f 30/314/91 31/315/91 37/316/91
f 31/315/91 36/317/91 37/316/91
f 31/318/92 32/319/92 35/320/92
f 31/318/93 35/320/93 36/321/93
f 32/322/94 27/323/94 34/324/94
f 32/322/94 34/324/94 35/325/94
f 11/326/95 10/327/95 25/328/95
f 10/327/95 18/329/95 25/328/95
f 12/330/96 11/331/96 24/332/96
f 11/331/96 25/24/96 24/332/96
f 13/333/97 12/334/97 24/23/97
f 13/333/97 24/23/97 23/335/97
f 14/336/98 13/337/98 23/22/98
f 14/336/98 23/22/98 22/338/98
f 15/339/99 14/340/99 22/21/99
f 15/339/99 22/21/99 21/341/99
f 16/342/100 15/343/100 21/19/100
f 16/342/100 21/19/100 20/344/100
f 17/345/101 16/346/101 20/18/101
f 17/345/102 20/18/102 19/347/102
f 10/348/103 17/349/103 18/350/103
f 17/349/104 19/16/104 18/350/104
f 1/351/105 2/352/105 10/353/105
f 2/352/105 17/354/105 10/353/105
f 2/1/106 3/5/106 16/355/106
f 2/1/106 16/355/106 17/356/106
f 3/357/107 4/7/107 15/358/107
f 3/357/108 15/358/108 16/359/108
f 4/360/109 5/8/109 14/361/109
f 4/360/109 14/361/109 15/362/109
f 5/363/110 6/10/110 13/364/110
f 5/363/110 13/364/110 14/365/110
f 6/366/111 7/12/111 13/367/111
f 7/12/111 12/368/111 13/367/111
f 7/369/112 8/13/112 12/370/112
f 8/13/112 11/371/112 12/370/112
f 8/372/113 1/2/113 11/373/113
f 1/2/113 10/374/113 11/373/113
